<svg xmlns="http://www.w3.org/2000/svg" xmlns:xlink="http://www.w3.org/1999/xlink" width="1080" zoomAndPan="magnify" viewBox="0 0 810 809.999993" height="1080" preserveAspectRatio="xMidYMid meet" version="1.0"><defs><clipPath id="87d6f96a9c"><path d="M 568 43.867188 L 797 43.867188 L 797 388 L 568 388 Z M 568 43.867188 " clip-rule="nonzero"/></clipPath><clipPath id="738d4cc718"><path d="M 643 375 L 806.242188 375 L 806.242188 466 L 643 466 Z M 643 375 " clip-rule="nonzero"/></clipPath><clipPath id="41b0ed681f"><path d="M 4 43.867188 L 232 43.867188 L 232 388 L 4 388 Z M 4 43.867188 " clip-rule="nonzero"/></clipPath><clipPath id="cea665386e"><path d="M 339 717 L 461 717 L 461 766.117188 L 339 766.117188 Z M 339 717 " clip-rule="nonzero"/></clipPath></defs><g clip-path="url(#87d6f96a9c)"><path fill="#4308b1" d="M 572.84375 361.191406 C 576.976562 380.441406 596.898438 391.886719 615.597656 385.710938 C 615.898438 385.613281 616.179688 385.519531 616.460938 385.429688 C 627.382812 381.800781 640.242188 377.40625 654.097656 372.074219 C 667.933594 366.730469 682.777344 360.5 697.40625 352.972656 L 702.875 350.09375 L 705.597656 348.648438 L 708.300781 347.113281 C 710.097656 346.085938 711.894531 345.0625 713.683594 344.046875 C 715.460938 343.007812 717.222656 341.882812 718.976562 340.808594 C 720.730469 339.707031 722.480469 338.683594 724.199219 337.523438 C 725.90625 336.378906 727.609375 335.234375 729.300781 334.089844 C 730.144531 333.523438 730.984375 332.953125 731.820312 332.378906 C 732.699219 331.753906 733.570312 331.128906 734.445312 330.503906 C 736.195312 329.261719 737.84375 327.941406 739.515625 326.671875 C 752.664062 316.285156 763.183594 304.914062 771.046875 294.164062 C 774.984375 288.789062 778.253906 283.574219 780.914062 278.789062 C 783.574219 274.007812 785.652344 269.675781 787.183594 265.996094 C 787.574219 265.078125 787.933594 264.214844 788.277344 263.394531 C 788.597656 262.558594 788.886719 261.785156 789.15625 261.050781 C 789.703125 259.597656 790.171875 258.367188 790.488281 257.335938 C 791.15625 255.292969 791.511719 254.199219 791.511719 254.199219 C 791.511719 254.199219 791.605469 253.9375 791.757812 253.390625 C 791.90625 252.851562 792.136719 252.050781 792.425781 251.011719 C 792.71875 249.972656 793.078125 248.695312 793.414062 247.144531 C 793.761719 245.613281 794.195312 243.867188 794.53125 241.851562 C 794.707031 240.847656 794.898438 239.792969 795.078125 238.691406 C 795.226562 237.5625 795.378906 236.398438 795.535156 235.175781 C 795.710938 233.960938 795.800781 232.671875 795.902344 231.351562 C 796 230.023438 796.132812 228.65625 796.140625 227.222656 C 796.371094 221.53125 796.101562 215.039062 794.910156 208.152344 C 794.601562 206.433594 794.230469 204.691406 793.871094 202.917969 C 793.441406 201.167969 792.953125 199.394531 792.46875 197.597656 C 791.898438 195.839844 791.324219 194.03125 790.699219 192.246094 C 790.019531 190.527344 789.371094 188.765625 788.628906 187.023438 C 785.644531 180.0625 781.769531 173.175781 777.242188 166.710938 C 772.722656 160.222656 767.507812 154.230469 762.046875 148.613281 C 756.566406 143.007812 750.808594 137.839844 745.046875 132.90625 C 733.492188 123.078125 721.945312 114.144531 712 105.03125 C 702.09375 95.945312 693.636719 86.621094 688.300781 77.488281 C 685.628906 72.933594 683.761719 68.441406 682.730469 64.292969 C 681.691406 60.144531 681.570312 56.339844 682.007812 53.257812 C 682.054688 52.859375 682.105469 52.480469 682.152344 52.109375 C 682.238281 51.757812 682.320312 51.40625 682.40625 51.066406 C 682.574219 50.394531 682.699219 49.734375 682.890625 49.152344 C 683.101562 48.570312 683.304688 48.039062 683.488281 47.546875 C 683.675781 47.054688 683.816406 46.589844 684.027344 46.226562 C 684.820312 44.6875 685.238281 43.867188 685.238281 43.867188 C 685.238281 43.867188 684.667969 44.597656 683.59375 45.972656 C 683.304688 46.304688 683.082031 46.738281 682.792969 47.199219 C 682.511719 47.660156 682.203125 48.175781 681.867188 48.722656 C 681.558594 49.28125 681.304688 49.925781 680.988281 50.597656 C 680.835938 50.941406 680.679688 51.292969 680.511719 51.640625 C 680.390625 52.023438 680.265625 52.410156 680.132812 52.804688 C 679.039062 55.976562 678.371094 60.128906 678.632812 64.875 C 678.890625 69.613281 679.992188 74.914062 681.9375 80.402344 C 685.84375 91.429688 692.941406 103.039062 701.464844 114.5 C 710.003906 125.964844 719.960938 137.246094 729 148.523438 C 733.5 154.160156 737.769531 159.804688 741.496094 165.445312 C 745.1875 171.078125 748.402344 176.671875 750.816406 182.152344 C 753.238281 187.628906 754.957031 192.941406 756.03125 197.988281 C 756.296875 199.246094 756.480469 200.507812 756.71875 201.722656 C 756.859375 202.894531 756.992188 204.046875 757.132812 205.183594 C 757.195312 206.3125 757.253906 207.421875 757.316406 208.507812 C 757.308594 209.578125 757.300781 210.636719 757.300781 211.675781 C 757.164062 215.796875 756.550781 219.503906 755.75 222.730469 C 755.589844 223.539062 755.324219 224.316406 755.125 225.0625 C 754.914062 225.800781 754.71875 226.523438 754.464844 227.210938 C 754.222656 227.890625 754.003906 228.550781 753.792969 229.175781 C 753.546875 229.792969 753.308594 230.386719 753.082031 230.945312 C 752.664062 232.066406 752.179688 233.050781 751.796875 233.90625 C 751.433594 234.769531 751.046875 235.492188 750.746094 236.070312 C 750.445312 236.652344 750.226562 237.105469 750.066406 237.402344 C 749.925781 237.703125 749.820312 237.851562 749.820312 237.851562 C 749.820312 237.851562 749.480469 238.46875 748.824219 239.613281 C 748.519531 240.195312 748.070312 240.890625 747.554688 241.710938 C 747.300781 242.113281 747.03125 242.554688 746.738281 243.023438 C 746.421875 243.480469 746.085938 243.976562 745.734375 244.496094 C 744.34375 246.5625 742.484375 249.011719 740.175781 251.714844 C 737.878906 254.421875 735.105469 257.371094 731.820312 260.375 C 725.28125 266.390625 716.632812 272.636719 706.800781 277.636719 C 705.558594 278.226562 704.339844 278.878906 703.070312 279.433594 C 702.441406 279.714844 701.808594 280 701.175781 280.289062 C 700.472656 280.589844 699.765625 280.878906 699.0625 281.179688 C 697.644531 281.777344 696.226562 282.386719 694.796875 282.984375 C 693.378906 283.601562 691.855469 284.113281 690.394531 284.683594 C 688.898438 285.230469 687.441406 285.820312 685.929688 286.351562 C 684.398438 286.859375 682.863281 287.378906 681.332031 287.898438 L 679.035156 288.675781 L 676.679688 289.386719 L 671.96875 290.816406 C 646.625 298.160156 618.988281 302.203125 597.769531 305.011719 C 597.664062 305.03125 597.558594 305.039062 597.453125 305.054688 C 578.25 307.566406 565.285156 325.929688 569.335938 344.851562 L 572.84375 361.191406 " fill-opacity="1" fill-rule="nonzero"/></g><g clip-path="url(#738d4cc718)"><path fill="#4308b1" d="M 720.527344 390.742188 C 665.070312 354.03125 643.148438 397.152344 643.148438 397.152344 C 712.492188 534.644531 806.015625 423.550781 806.015625 423.550781 C 806.015625 423.550781 775.984375 427.441406 720.527344 390.742188 " fill-opacity="1" fill-rule="nonzero"/></g><g clip-path="url(#41b0ed681f)"><path fill="#4308b1" d="M 227.511719 361.191406 C 223.382812 380.441406 203.464844 391.886719 184.761719 385.710938 C 184.464844 385.613281 184.179688 385.519531 183.898438 385.429688 C 172.976562 381.800781 160.113281 377.40625 146.261719 372.074219 C 132.421875 366.730469 117.589844 360.5 102.957031 352.972656 L 97.484375 350.09375 L 94.765625 348.648438 L 92.054688 347.113281 C 90.261719 346.085938 88.464844 345.0625 86.679688 344.046875 C 84.894531 343.007812 83.136719 341.882812 81.378906 340.808594 C 79.628906 339.707031 77.875 338.683594 76.160156 337.523438 C 74.453125 336.378906 72.75 335.234375 71.058594 334.089844 C 70.21875 333.523438 69.375 332.953125 68.539062 332.378906 C 67.664062 331.753906 66.789062 331.128906 65.917969 330.503906 C 64.164062 329.261719 62.515625 327.941406 60.84375 326.671875 C 47.695312 316.285156 37.179688 304.914062 29.3125 294.164062 C 25.375 288.789062 22.109375 283.574219 19.449219 278.789062 C 16.785156 274.007812 14.707031 269.675781 13.171875 265.996094 C 12.789062 265.078125 12.421875 264.214844 12.082031 263.394531 C 11.769531 262.558594 11.472656 261.785156 11.199219 261.050781 C 10.652344 259.597656 10.191406 258.367188 9.871094 257.335938 C 9.203125 255.292969 8.847656 254.199219 8.847656 254.199219 C 8.847656 254.199219 8.75 253.9375 8.601562 253.390625 C 8.453125 252.851562 8.230469 252.050781 7.9375 251.011719 C 7.644531 249.972656 7.285156 248.695312 6.945312 247.144531 C 6.597656 245.613281 6.164062 243.867188 5.835938 241.851562 C 5.65625 240.847656 5.460938 239.792969 5.28125 238.691406 C 5.136719 237.5625 4.980469 236.398438 4.824219 235.175781 C 4.652344 233.960938 4.558594 232.671875 4.457031 231.351562 C 4.359375 230.023438 4.226562 228.65625 4.214844 227.222656 C 3.996094 221.53125 4.261719 215.039062 5.445312 208.152344 C 5.757812 206.433594 6.128906 204.691406 6.492188 202.917969 C 6.925781 201.167969 7.40625 199.394531 7.890625 197.597656 C 8.460938 195.839844 9.039062 194.03125 9.65625 192.246094 C 10.339844 190.527344 10.988281 188.765625 11.734375 187.023438 C 14.714844 180.0625 18.589844 173.175781 23.121094 166.710938 C 27.640625 160.222656 32.855469 154.230469 38.3125 148.613281 C 43.789062 143.007812 49.550781 137.839844 55.3125 132.90625 C 66.867188 123.078125 78.414062 114.144531 88.359375 105.03125 C 98.273438 95.945312 106.722656 86.621094 112.058594 77.488281 C 114.734375 72.933594 116.597656 68.441406 117.625 64.292969 C 118.667969 60.144531 118.792969 56.339844 118.351562 53.257812 C 118.304688 52.859375 118.257812 52.480469 118.210938 52.109375 C 118.121094 51.757812 118.039062 51.40625 117.957031 51.066406 C 117.78125 50.394531 117.660156 49.734375 117.46875 49.152344 C 117.253906 48.570312 117.054688 48.039062 116.875 47.546875 C 116.683594 47.054688 116.546875 46.589844 116.328125 46.226562 C 115.539062 44.6875 115.117188 43.867188 115.117188 43.867188 C 115.117188 43.867188 115.691406 44.597656 116.761719 45.972656 C 117.054688 46.304688 117.28125 46.738281 117.570312 47.199219 C 117.851562 47.660156 118.15625 48.175781 118.488281 48.722656 C 118.800781 49.28125 119.054688 49.925781 119.371094 50.597656 C 119.527344 50.941406 119.683594 51.292969 119.847656 51.640625 C 119.96875 52.023438 120.09375 52.410156 120.222656 52.804688 C 121.316406 55.976562 121.984375 60.128906 121.71875 64.875 C 121.46875 69.613281 120.367188 74.914062 118.417969 80.402344 C 114.523438 91.429688 107.414062 103.039062 98.894531 114.5 C 90.363281 125.964844 80.398438 137.246094 71.359375 148.523438 C 66.859375 154.160156 62.585938 159.804688 58.863281 165.445312 C 55.167969 171.078125 51.957031 176.671875 49.542969 182.152344 C 47.117188 187.628906 45.402344 192.941406 44.332031 197.988281 C 44.066406 199.246094 43.878906 200.507812 43.644531 201.722656 C 43.503906 202.894531 43.363281 204.046875 43.226562 205.183594 C 43.164062 206.3125 43.105469 207.421875 43.046875 208.507812 C 43.050781 209.578125 43.054688 210.636719 43.0625 211.675781 C 43.191406 215.796875 43.808594 219.503906 44.609375 222.730469 C 44.769531 223.539062 45.03125 224.316406 45.238281 225.0625 C 45.449219 225.800781 45.640625 226.523438 45.898438 227.210938 C 46.132812 227.890625 46.355469 228.550781 46.566406 229.175781 C 46.816406 229.792969 47.054688 230.386719 47.277344 230.945312 C 47.691406 232.066406 48.179688 233.050781 48.558594 233.90625 C 48.929688 234.769531 49.3125 235.492188 49.613281 236.070312 C 49.910156 236.652344 50.136719 237.105469 50.289062 237.402344 C 50.433594 237.703125 50.535156 237.851562 50.535156 237.851562 C 50.535156 237.851562 50.882812 238.46875 51.535156 239.613281 C 51.84375 240.195312 52.289062 240.890625 52.800781 241.710938 C 53.058594 242.113281 53.328125 242.554688 53.621094 243.023438 C 53.9375 243.480469 54.273438 243.976562 54.625 244.496094 C 56.015625 246.5625 57.878906 249.011719 60.179688 251.714844 C 62.480469 254.421875 65.257812 257.371094 68.542969 260.375 C 75.078125 266.390625 83.726562 272.636719 93.554688 277.636719 C 94.800781 278.226562 96.019531 278.878906 97.292969 279.433594 C 97.917969 279.714844 98.546875 280 99.183594 280.289062 C 99.886719 280.589844 100.59375 280.878906 101.300781 281.179688 C 102.714844 281.777344 104.136719 282.386719 105.5625 282.984375 C 106.976562 283.601562 108.503906 284.113281 109.96875 284.683594 C 111.457031 285.230469 112.914062 285.820312 114.433594 286.351562 C 115.960938 286.859375 117.492188 287.378906 119.027344 287.898438 L 121.324219 288.675781 L 123.679688 289.386719 L 128.390625 290.816406 C 153.730469 298.160156 181.367188 302.203125 202.589844 305.011719 C 202.695312 305.03125 202.800781 305.039062 202.910156 305.054688 C 222.105469 307.566406 235.074219 325.929688 231.019531 344.851562 L 227.511719 361.191406 " fill-opacity="1" fill-rule="nonzero"/></g><path fill="#4308b1" d="M 100.527344 390.742188 C 155.980469 354.03125 177.902344 397.152344 177.902344 397.152344 C 108.558594 534.644531 15.042969 423.550781 15.042969 423.550781 C 15.042969 423.550781 45.074219 427.441406 100.527344 390.742188 " fill-opacity="1" fill-rule="nonzero"/><path fill="#4308b1" d="M 611.210938 420.941406 C 611.210938 420.941406 611.433594 422.421875 611.609375 425.214844 C 611.777344 428.007812 611.898438 432.121094 611.675781 437.351562 C 611.484375 442.582031 610.9375 448.933594 609.820312 456.175781 C 608.695312 463.414062 606.972656 471.527344 604.472656 480.253906 C 601.953125 488.976562 598.652344 498.304688 594.324219 507.867188 C 590.035156 517.433594 584.726562 527.234375 578.417969 536.890625 C 572.101562 546.550781 564.757812 556.058594 556.484375 564.996094 C 554.46875 567.277344 552.25 569.382812 550.121094 571.59375 L 547.257812 574.527344 L 546.496094 575.292969 L 546.128906 575.671875 L 545.855469 575.980469 L 544.765625 577.195312 C 544.042969 577.945312 543.25 578.9375 542.484375 579.847656 C 541.679688 580.746094 541.003906 581.730469 540.234375 582.65625 C 539.488281 583.601562 538.820312 584.59375 538.105469 585.554688 L 536.105469 588.53125 C 530.9375 596.597656 527.042969 605.539062 524.296875 615.15625 C 521.5 624.738281 519.773438 634.921875 518.445312 645.167969 C 517.125 655.425781 516.226562 665.769531 515.007812 675.835938 C 514.367188 680.871094 513.761719 685.851562 512.90625 690.710938 C 512.035156 695.574219 511.109375 700.328125 509.839844 704.890625 C 508.554688 709.457031 507.097656 713.851562 505.28125 717.921875 C 503.4375 721.96875 501.375 725.75 498.972656 729 C 494.226562 735.578125 488.5625 739.964844 483.65625 742.492188 C 482.457031 743.183594 481.234375 743.644531 480.140625 744.175781 C 479.015625 744.617188 477.949219 745.003906 476.960938 745.347656 C 475.964844 745.636719 475.050781 745.910156 474.203125 746.167969 C 473.351562 746.351562 472.574219 746.53125 471.886719 746.675781 C 470.523438 747.011719 469.421875 747.082031 468.714844 747.207031 C 468.003906 747.308594 467.632812 747.367188 467.632812 747.367188 C 467.632812 747.367188 467.941406 747.144531 468.53125 746.730469 C 469.113281 746.308594 470.003906 745.746094 471.085938 744.898438 C 473.277344 743.277344 476.40625 740.777344 479.515625 737.148438 C 482.652344 733.539062 485.609375 728.773438 487.523438 722.863281 C 489.460938 716.960938 490.402344 709.914062 490.578125 701.882812 C 490.675781 697.871094 490.640625 693.609375 490.425781 689.125 C 490.234375 684.644531 490.023438 679.949219 489.695312 675.035156 C 489.117188 665.222656 488.507812 654.554688 488.640625 643.148438 C 488.816406 631.746094 489.714844 619.535156 492.628906 607.019531 C 495.457031 594.539062 500.476562 581.785156 507.832031 570.332031 C 508.765625 568.925781 509.726562 567.515625 510.695312 566.125 C 511.71875 564.765625 512.695312 563.382812 513.75 562.054688 C 514.828125 560.75 515.847656 559.394531 516.992188 558.152344 C 518.128906 556.882812 519.167969 555.652344 520.460938 554.335938 L 522.339844 552.402344 L 522.804688 551.914062 L 523.203125 551.539062 L 523.976562 550.796875 L 527.277344 547.699219 C 529.21875 545.855469 531.226562 544.09375 533.105469 542.21875 C 540.738281 534.820312 547.863281 527.105469 554.402344 519.257812 C 560.953125 511.417969 566.890625 503.449219 572.277344 495.625 C 577.652344 487.796875 582.402344 480.078125 586.574219 472.769531 C 590.773438 465.46875 594.386719 458.5625 597.46875 452.324219 C 600.5625 446.101562 603.089844 440.511719 605.125 435.863281 C 609.167969 426.5625 611.210938 420.941406 611.210938 420.941406 " fill-opacity="1" fill-rule="nonzero"/><path fill="#4308b1" d="M 189.148438 420.941406 C 189.148438 420.941406 191.195312 426.5625 195.234375 435.863281 C 197.265625 440.511719 199.796875 446.101562 202.886719 452.324219 C 205.972656 458.5625 209.582031 465.46875 213.78125 472.769531 C 217.957031 480.078125 222.707031 487.796875 228.082031 495.625 C 233.472656 503.449219 239.410156 511.417969 245.957031 519.257812 C 252.496094 527.105469 259.621094 534.820312 267.253906 542.21875 C 269.136719 544.09375 271.144531 545.855469 273.082031 547.699219 L 276.378906 550.796875 L 277.160156 551.539062 L 277.554688 551.914062 L 278.023438 552.402344 L 279.894531 554.335938 C 281.191406 555.652344 282.234375 556.882812 283.371094 558.152344 C 284.511719 559.394531 285.539062 560.75 286.605469 562.054688 C 287.664062 563.382812 288.644531 564.765625 289.660156 566.125 C 290.632812 567.515625 291.589844 568.925781 292.53125 570.332031 C 299.886719 581.785156 304.902344 594.539062 307.734375 607.019531 C 310.648438 619.535156 311.542969 631.746094 311.722656 643.148438 C 311.855469 654.554688 311.246094 665.222656 310.660156 675.035156 C 310.335938 679.949219 310.125 684.644531 309.933594 689.125 C 309.722656 693.609375 309.6875 697.871094 309.777344 701.882812 C 309.957031 709.914062 310.898438 716.960938 312.839844 722.863281 C 314.746094 728.773438 317.710938 733.539062 320.84375 737.148438 C 323.957031 740.777344 327.082031 743.277344 329.273438 744.898438 C 330.351562 745.746094 331.246094 746.308594 331.828125 746.730469 C 332.421875 747.144531 332.726562 747.367188 332.726562 747.367188 C 332.726562 747.367188 332.359375 747.308594 331.644531 747.207031 C 330.941406 747.082031 329.839844 747.011719 328.476562 746.675781 C 327.78125 746.53125 327.007812 746.351562 326.15625 746.167969 C 325.3125 745.910156 324.390625 745.636719 323.394531 745.347656 C 322.414062 745.003906 321.347656 744.617188 320.214844 744.175781 C 319.128906 743.644531 317.902344 743.183594 316.703125 742.492188 C 311.804688 739.964844 306.132812 735.578125 301.386719 729 C 298.988281 725.75 296.921875 721.96875 295.082031 717.921875 C 293.253906 713.851562 291.808594 709.457031 290.519531 704.890625 C 289.253906 700.328125 288.324219 695.574219 287.453125 690.710938 C 286.601562 685.851562 285.992188 680.871094 285.347656 675.835938 C 284.132812 665.769531 283.230469 655.425781 281.914062 645.167969 C 280.585938 634.921875 278.851562 624.738281 276.0625 615.15625 C 273.3125 605.539062 269.421875 596.597656 264.25 588.53125 L 262.257812 585.554688 C 261.539062 584.59375 260.871094 583.601562 260.125 582.65625 C 259.359375 581.730469 258.679688 580.746094 257.878906 579.847656 C 257.113281 578.9375 256.316406 577.945312 255.597656 577.195312 L 254.503906 575.980469 L 254.234375 575.671875 L 253.859375 575.292969 L 253.101562 574.527344 L 250.238281 571.59375 C 248.109375 569.382812 245.886719 567.277344 243.871094 564.996094 C 235.597656 556.058594 228.257812 546.550781 221.941406 536.890625 C 215.628906 527.234375 210.324219 517.433594 206.03125 507.867188 C 201.710938 498.304688 198.40625 488.976562 195.882812 480.253906 C 193.382812 471.527344 191.664062 463.414062 190.542969 456.175781 C 189.425781 448.933594 188.871094 442.582031 188.679688 437.351562 C 188.457031 432.121094 188.585938 428.007812 188.753906 425.214844 C 188.925781 422.421875 189.148438 420.941406 189.148438 420.941406 " fill-opacity="1" fill-rule="nonzero"/><g clip-path="url(#cea665386e)"><path fill="#4308b1" d="M 451.03125 717.785156 C 438.945312 726.578125 420.652344 733.457031 400.179688 733.457031 C 379.707031 733.457031 361.417969 726.578125 349.335938 717.785156 C 343.25 721.839844 339.707031 726.65625 339.707031 731.835938 C 339.707031 746.183594 366.78125 766.117188 400.179688 766.117188 C 433.582031 766.117188 460.648438 746.183594 460.648438 731.835938 C 460.648438 726.65625 457.109375 721.839844 451.03125 717.785156 " fill-opacity="1" fill-rule="nonzero"/></g></svg>