<svg xmlns="http://www.w3.org/2000/svg" xmlns:xlink="http://www.w3.org/1999/xlink" width="1080" zoomAndPan="magnify" viewBox="0 0 810 809.999993" height="1080" preserveAspectRatio="xMidYMid meet" version="1.0"><defs><g/><clipPath id="f8e1216895"><path d="M 568 69.644531 L 796 69.644531 L 796 414 L 568 414 Z M 568 69.644531 " clip-rule="nonzero"/></clipPath><clipPath id="35f1755824"><path d="M 642 401 L 805.929688 401 L 805.929688 492 L 642 492 Z M 642 401 " clip-rule="nonzero"/></clipPath><clipPath id="b6d95198ad"><path d="M 4 69.644531 L 232 69.644531 L 232 414 L 4 414 Z M 4 69.644531 " clip-rule="nonzero"/></clipPath><clipPath id="7f96ac3906"><path d="M 339 743 L 461 743 L 461 792.359375 L 339 792.359375 Z M 339 743 " clip-rule="nonzero"/></clipPath></defs><g clip-path="url(#f8e1216895)"><path fill="#ffffff" d="M 572.617188 387.171875 C 576.746094 406.4375 596.664062 417.886719 615.355469 411.707031 C 615.65625 411.609375 615.9375 411.515625 616.214844 411.425781 C 627.132812 407.796875 639.988281 403.398438 653.835938 398.0625 C 667.667969 392.714844 682.503906 386.480469 697.128906 378.949219 L 702.597656 376.066406 L 705.316406 374.621094 L 708.019531 373.085938 C 709.816406 372.054688 711.609375 371.035156 713.398438 370.019531 C 715.175781 368.980469 716.9375 367.851562 718.6875 366.773438 C 720.441406 365.671875 722.195312 364.652344 723.910156 363.488281 C 725.617188 362.34375 727.316406 361.199219 729.011719 360.050781 C 729.851562 359.488281 730.691406 358.914062 731.527344 358.339844 C 732.40625 357.71875 733.277344 357.089844 734.152344 356.464844 C 735.902344 355.222656 737.550781 353.898438 739.222656 352.628906 C 752.367188 342.238281 762.878906 330.859375 770.742188 320.101562 C 774.675781 314.722656 777.941406 309.503906 780.601562 304.71875 C 783.257812 299.933594 785.335938 295.597656 786.871094 291.914062 C 787.257812 290.996094 787.621094 290.136719 787.960938 289.3125 C 788.28125 288.476562 788.570312 287.699219 788.839844 286.96875 C 789.386719 285.515625 789.855469 284.28125 790.171875 283.25 C 790.839844 281.203125 791.195312 280.113281 791.195312 280.113281 C 791.195312 280.113281 791.289062 279.847656 791.441406 279.300781 C 791.589844 278.761719 791.820312 277.960938 792.109375 276.921875 C 792.402344 275.882812 792.761719 274.605469 793.09375 273.050781 C 793.445312 271.519531 793.878906 269.773438 794.214844 267.757812 C 794.390625 266.75 794.582031 265.695312 794.761719 264.59375 C 794.90625 263.464844 795.058594 262.300781 795.21875 261.074219 C 795.394531 259.859375 795.480469 258.570312 795.585938 257.25 C 795.683594 255.921875 795.816406 254.554688 795.824219 253.117188 C 796.054688 247.421875 795.78125 240.925781 794.589844 234.035156 C 794.28125 232.316406 793.914062 230.570312 793.554688 228.796875 C 793.125 227.046875 792.636719 225.273438 792.152344 223.476562 C 791.582031 221.710938 791.007812 219.90625 790.382812 218.117188 C 789.703125 216.402344 789.054688 214.636719 788.316406 212.890625 C 785.328125 205.925781 781.457031 199.035156 776.929688 192.566406 C 772.414062 186.074219 767.203125 180.078125 761.742188 174.457031 C 756.265625 168.847656 750.507812 163.675781 744.75 158.742188 C 733.199219 148.902344 721.65625 139.964844 711.71875 130.847656 C 701.8125 121.757812 693.359375 112.425781 688.023438 103.285156 C 685.355469 98.730469 683.488281 94.230469 682.460938 90.082031 C 681.421875 85.933594 681.296875 82.125 681.738281 79.039062 C 681.785156 78.644531 681.835938 78.265625 681.878906 77.894531 C 681.96875 77.542969 682.046875 77.1875 682.132812 76.847656 C 682.300781 76.175781 682.425781 75.515625 682.617188 74.933594 C 682.828125 74.351562 683.03125 73.820312 683.21875 73.328125 C 683.402344 72.835938 683.542969 72.367188 683.753906 72.003906 C 684.546875 70.464844 684.96875 69.644531 684.96875 69.644531 C 684.96875 69.644531 684.398438 70.375 683.324219 71.75 C 683.03125 72.085938 682.8125 72.519531 682.523438 72.976562 C 682.242188 73.441406 681.929688 73.953125 681.597656 74.5 C 681.289062 75.0625 681.035156 75.707031 680.71875 76.378906 C 680.566406 76.722656 680.40625 77.074219 680.242188 77.425781 C 680.117188 77.808594 679.996094 78.191406 679.863281 78.589844 C 678.769531 81.761719 678.101562 85.914062 678.363281 90.664062 C 678.621094 95.40625 679.722656 100.710938 681.667969 106.203125 C 685.570312 117.238281 692.664062 128.851562 701.1875 140.320312 C 709.71875 151.796875 719.675781 163.085938 728.710938 174.367188 C 733.210938 180.007812 737.476562 185.65625 741.203125 191.300781 C 744.890625 196.9375 748.105469 202.535156 750.519531 208.015625 C 752.941406 213.5 754.65625 218.8125 755.730469 223.863281 C 755.992188 225.125 756.179688 226.382812 756.417969 227.601562 C 756.558594 228.773438 756.6875 229.925781 756.828125 231.0625 C 756.890625 232.191406 756.953125 233.304688 757.015625 234.390625 C 757.003906 235.464844 756.996094 236.519531 756.996094 237.558594 C 756.863281 241.683594 756.25 245.394531 755.445312 248.621094 C 755.289062 249.429688 755.023438 250.207031 754.824219 250.957031 C 754.609375 251.695312 754.417969 252.417969 754.164062 253.109375 C 753.921875 253.785156 753.703125 254.445312 753.492188 255.074219 C 753.246094 255.691406 753.007812 256.28125 752.78125 256.84375 C 752.367188 257.964844 751.878906 258.949219 751.496094 259.808594 C 751.132812 260.667969 750.746094 261.390625 750.445312 261.972656 C 750.148438 262.554688 749.925781 263.003906 749.769531 263.304688 C 749.628906 263.605469 749.519531 263.753906 749.519531 263.753906 C 749.519531 263.753906 749.179688 264.371094 748.527344 265.515625 C 748.222656 266.097656 747.769531 266.796875 747.257812 267.617188 C 747.003906 268.019531 746.730469 268.460938 746.441406 268.925781 C 746.125 269.386719 745.789062 269.882812 745.4375 270.402344 C 744.046875 272.46875 742.1875 274.921875 739.882812 277.628906 C 737.582031 280.332031 734.8125 283.285156 731.527344 286.289062 C 724.992188 292.3125 716.347656 298.558594 706.519531 303.566406 C 705.28125 304.152344 704.058594 304.808594 702.789062 305.363281 C 702.164062 305.644531 701.53125 305.925781 700.898438 306.21875 C 700.191406 306.519531 699.488281 306.808594 698.78125 307.109375 C 697.367188 307.707031 695.949219 308.316406 694.523438 308.914062 C 693.105469 309.53125 691.582031 310.042969 690.121094 310.617188 C 688.625 311.164062 687.167969 311.753906 685.65625 312.28125 C 684.125 312.792969 682.589844 313.3125 681.0625 313.832031 L 678.761719 314.609375 L 676.410156 315.324219 L 671.703125 316.75 C 646.371094 324.101562 618.742188 328.148438 597.535156 330.957031 C 597.425781 330.976562 597.324219 330.984375 597.21875 331 C 578.023438 333.515625 565.066406 351.886719 569.113281 370.820312 L 572.617188 387.171875 " fill-opacity="1" fill-rule="nonzero"/></g><g clip-path="url(#35f1755824)"><path fill="#ffffff" d="M 720.238281 416.742188 C 664.808594 380.007812 642.894531 423.160156 642.894531 423.160156 C 712.210938 560.734375 805.691406 449.570312 805.691406 449.570312 C 805.691406 449.570312 775.671875 453.464844 720.238281 416.742188 " fill-opacity="1" fill-rule="nonzero"/></g><g clip-path="url(#b6d95198ad)"><path fill="#ffffff" d="M 227.429688 387.171875 C 223.304688 406.4375 203.394531 417.886719 184.695312 411.707031 C 184.398438 411.609375 184.113281 411.515625 183.835938 411.425781 C 172.917969 407.796875 160.058594 403.398438 146.214844 398.0625 C 132.378906 392.714844 117.550781 386.480469 102.925781 378.949219 L 97.457031 376.066406 L 94.738281 374.621094 L 92.03125 373.085938 C 90.234375 372.054688 88.441406 371.035156 86.65625 370.019531 C 84.875 368.980469 83.113281 367.851562 81.359375 366.773438 C 79.609375 365.671875 77.855469 364.652344 76.140625 363.488281 C 74.433594 362.34375 72.734375 361.199219 71.039062 360.050781 C 70.203125 359.488281 69.359375 358.914062 68.523438 358.339844 C 67.644531 357.71875 66.773438 357.089844 65.902344 356.464844 C 64.148438 355.222656 62.5 353.898438 60.828125 352.628906 C 47.6875 342.238281 37.175781 330.859375 29.3125 320.101562 C 25.375 314.722656 22.113281 309.503906 19.453125 304.71875 C 16.792969 299.933594 14.714844 295.597656 13.179688 291.914062 C 12.796875 290.996094 12.429688 290.136719 12.089844 289.3125 C 11.777344 288.476562 11.480469 287.699219 11.207031 286.96875 C 10.660156 285.515625 10.199219 284.28125 9.878906 283.25 C 9.210938 281.203125 8.855469 280.113281 8.855469 280.113281 C 8.855469 280.113281 8.757812 279.847656 8.609375 279.300781 C 8.460938 278.761719 8.238281 277.960938 7.945312 276.921875 C 7.652344 275.882812 7.292969 274.605469 6.957031 273.050781 C 6.609375 271.519531 6.175781 269.773438 5.84375 267.757812 C 5.664062 266.75 5.46875 265.695312 5.289062 264.59375 C 5.144531 263.464844 4.992188 262.300781 4.832031 261.074219 C 4.660156 259.859375 4.570312 258.570312 4.464844 257.25 C 4.367188 255.921875 4.238281 254.554688 4.222656 253.117188 C 4.003906 247.421875 4.273438 240.925781 5.457031 234.035156 C 5.769531 232.316406 6.140625 230.570312 6.5 228.796875 C 6.933594 227.046875 7.417969 225.273438 7.898438 223.476562 C 8.46875 221.710938 9.046875 219.90625 9.664062 218.117188 C 10.347656 216.402344 10.996094 214.636719 11.742188 212.890625 C 14.722656 205.925781 18.59375 199.035156 23.121094 192.566406 C 27.640625 186.074219 32.855469 180.078125 38.308594 174.457031 C 43.78125 168.847656 49.542969 163.675781 55.304688 158.742188 C 66.851562 148.902344 78.394531 139.964844 88.332031 130.847656 C 98.246094 121.757812 106.691406 112.425781 112.027344 103.285156 C 114.699219 98.730469 116.5625 94.230469 117.589844 90.082031 C 118.632812 85.933594 118.757812 82.125 118.316406 79.039062 C 118.265625 78.644531 118.21875 78.265625 118.175781 77.894531 C 118.085938 77.542969 118.003906 77.1875 117.921875 76.847656 C 117.746094 76.175781 117.625 75.515625 117.433594 74.933594 C 117.21875 74.351562 117.019531 73.820312 116.835938 73.328125 C 116.648438 72.835938 116.511719 72.367188 116.292969 72.003906 C 115.503906 70.464844 115.082031 69.644531 115.082031 69.644531 C 115.082031 69.644531 115.652344 70.375 116.726562 71.75 C 117.019531 72.085938 117.242188 72.519531 117.53125 72.976562 C 117.8125 73.441406 118.121094 73.953125 118.449219 74.5 C 118.761719 75.0625 119.015625 75.707031 119.332031 76.378906 C 119.488281 76.722656 119.648438 77.074219 119.808594 77.425781 C 119.933594 77.808594 120.054688 78.191406 120.1875 78.589844 C 121.277344 81.761719 121.949219 85.914062 121.679688 90.664062 C 121.429688 95.40625 120.332031 100.710938 118.382812 106.203125 C 114.488281 117.238281 107.382812 128.851562 98.867188 140.320312 C 90.339844 151.796875 80.378906 163.085938 71.34375 174.367188 C 66.84375 180.007812 62.570312 185.65625 58.851562 191.300781 C 55.160156 196.9375 51.945312 202.535156 49.535156 208.015625 C 47.109375 213.5 45.394531 218.8125 44.324219 223.863281 C 44.058594 225.125 43.871094 226.382812 43.636719 227.601562 C 43.496094 228.773438 43.359375 229.925781 43.222656 231.0625 C 43.160156 232.191406 43.101562 233.304688 43.042969 234.390625 C 43.046875 235.464844 43.050781 236.519531 43.054688 237.558594 C 43.1875 241.683594 43.800781 245.394531 44.605469 248.621094 C 44.761719 249.429688 45.023438 250.207031 45.230469 250.957031 C 45.441406 251.695312 45.632812 252.417969 45.890625 253.109375 C 46.125 253.785156 46.347656 254.445312 46.5625 255.074219 C 46.808594 255.691406 47.046875 256.28125 47.269531 256.84375 C 47.683594 257.964844 48.171875 258.949219 48.550781 259.808594 C 48.921875 260.667969 49.304688 261.390625 49.605469 261.972656 C 49.898438 262.554688 50.128906 263.003906 50.28125 263.304688 C 50.425781 263.605469 50.527344 263.753906 50.527344 263.753906 C 50.527344 263.753906 50.875 264.371094 51.527344 265.515625 C 51.832031 266.097656 52.28125 266.796875 52.792969 267.617188 C 53.046875 268.019531 53.320312 268.460938 53.609375 268.925781 C 53.925781 269.386719 54.261719 269.882812 54.617188 270.402344 C 56.003906 272.46875 57.867188 274.921875 60.167969 277.628906 C 62.46875 280.332031 65.242188 283.285156 68.527344 286.289062 C 75.058594 292.3125 83.703125 298.558594 93.53125 303.566406 C 94.773438 304.152344 95.992188 304.808594 97.265625 305.363281 C 97.890625 305.644531 98.519531 305.925781 99.152344 306.21875 C 99.859375 306.519531 100.5625 306.808594 101.269531 307.109375 C 102.683594 307.707031 104.105469 308.316406 105.53125 308.914062 C 106.945312 309.53125 108.46875 310.042969 109.933594 310.617188 C 111.421875 311.164062 112.878906 311.753906 114.398438 312.28125 C 115.925781 312.792969 117.457031 313.3125 118.988281 313.832031 L 121.289062 314.609375 L 123.640625 315.324219 L 128.351562 316.75 C 153.675781 324.101562 181.304688 328.148438 202.515625 330.957031 C 202.625 330.976562 202.730469 330.984375 202.835938 331 C 222.023438 333.515625 234.988281 351.886719 230.933594 370.820312 L 227.429688 387.171875 " fill-opacity="1" fill-rule="nonzero"/></g><path fill="#ffffff" d="M 100.496094 416.742188 C 155.925781 380.007812 177.839844 423.160156 177.839844 423.160156 C 108.523438 560.734375 15.046875 449.570312 15.046875 449.570312 C 15.046875 449.570312 45.066406 453.464844 100.496094 416.742188 " fill-opacity="1" fill-rule="nonzero"/><path fill="#ffffff" d="M 610.96875 446.960938 C 610.96875 446.960938 611.191406 448.441406 611.367188 451.238281 C 611.535156 454.03125 611.65625 458.148438 611.433594 463.378906 C 611.242188 468.617188 610.695312 474.972656 609.578125 482.214844 C 608.453125 489.460938 606.734375 497.578125 604.234375 506.3125 C 601.714844 515.039062 598.414062 524.375 594.089844 533.945312 C 589.800781 543.515625 584.496094 553.324219 578.191406 562.984375 C 571.878906 572.652344 564.535156 582.164062 556.265625 591.109375 C 554.25 593.390625 552.035156 595.5 549.90625 597.707031 L 547.042969 600.644531 L 546.28125 601.414062 L 545.914062 601.792969 L 545.640625 602.097656 L 544.550781 603.316406 C 543.828125 604.0625 543.035156 605.058594 542.269531 605.96875 C 541.46875 606.867188 540.789062 607.855469 540.023438 608.78125 C 539.277344 609.722656 538.605469 610.71875 537.894531 611.679688 L 535.898438 614.65625 C 530.726562 622.730469 526.835938 631.679688 524.089844 641.300781 C 521.296875 650.890625 519.570312 661.082031 518.242188 671.328125 C 516.921875 681.597656 516.023438 691.945312 514.808594 702.019531 C 514.164062 707.058594 513.558594 712.039062 512.707031 716.90625 C 511.832031 721.769531 510.90625 726.527344 509.640625 731.09375 C 508.355469 735.660156 506.902344 740.058594 505.082031 744.132812 C 503.242188 748.183594 501.179688 751.96875 498.777344 755.21875 C 494.03125 761.800781 488.371094 766.1875 483.464844 768.71875 C 482.269531 769.410156 481.046875 769.871094 479.953125 770.402344 C 478.828125 770.84375 477.761719 771.234375 476.773438 771.578125 C 475.78125 771.867188 474.867188 772.136719 474.019531 772.398438 C 473.167969 772.578125 472.390625 772.757812 471.703125 772.90625 C 470.339844 773.238281 469.238281 773.3125 468.535156 773.4375 C 467.820312 773.539062 467.449219 773.59375 467.449219 773.59375 C 467.449219 773.59375 467.761719 773.375 468.347656 772.957031 C 468.929688 772.539062 469.820312 771.972656 470.902344 771.125 C 473.09375 769.503906 476.21875 767 479.328125 763.371094 C 482.460938 759.757812 485.421875 754.988281 487.332031 749.074219 C 489.269531 743.171875 490.210938 736.121094 490.386719 728.082031 C 490.484375 724.070312 490.449219 719.804688 490.234375 715.316406 C 490.042969 710.832031 489.832031 706.136719 489.503906 701.214844 C 488.925781 691.398438 488.316406 680.726562 488.449219 669.3125 C 488.625 657.898438 489.523438 645.679688 492.4375 633.160156 C 495.261719 620.667969 500.28125 607.90625 507.632812 596.449219 C 508.566406 595.039062 509.523438 593.628906 510.496094 592.238281 C 511.515625 590.878906 512.492188 589.492188 513.550781 588.164062 C 514.625 586.859375 515.648438 585.503906 516.789062 584.261719 C 517.925781 582.992188 518.964844 581.757812 520.257812 580.441406 L 522.601562 578.019531 L 522.996094 577.640625 L 523.769531 576.898438 L 527.070312 573.796875 C 529.011719 571.957031 531.015625 570.195312 532.894531 568.316406 C 540.527344 560.910156 547.648438 553.191406 554.183594 545.339844 C 560.730469 537.492188 566.667969 529.519531 572.054688 521.691406 C 577.425781 513.859375 582.171875 506.136719 586.34375 498.820312 C 590.542969 491.515625 594.152344 484.605469 597.234375 478.363281 C 600.328125 472.136719 602.851562 466.542969 604.886719 461.894531 C 608.929688 452.582031 610.96875 446.960938 610.96875 446.960938 " fill-opacity="1" fill-rule="nonzero"/><path fill="#ffffff" d="M 189.082031 446.960938 C 189.082031 446.960938 191.125 452.582031 195.164062 461.894531 C 197.195312 466.542969 199.722656 472.136719 202.816406 478.363281 C 205.898438 484.605469 209.507812 491.515625 213.703125 498.820312 C 217.878906 506.136719 222.625 513.859375 228 521.691406 C 233.386719 529.519531 239.324219 537.492188 245.867188 545.339844 C 252.402344 553.191406 259.523438 560.910156 267.15625 568.316406 C 269.039062 570.195312 271.042969 571.957031 272.980469 573.796875 L 276.277344 576.898438 L 277.058594 577.640625 L 277.453125 578.019531 L 277.921875 578.503906 L 279.792969 580.441406 C 281.089844 581.757812 282.128906 582.992188 283.265625 584.261719 C 284.402344 585.503906 285.433594 586.859375 286.5 588.164062 C 287.558594 589.492188 288.539062 590.878906 289.550781 592.238281 C 290.527344 593.628906 291.480469 595.039062 292.421875 596.449219 C 299.773438 607.90625 304.789062 620.667969 307.617188 633.160156 C 310.53125 645.679688 311.425781 657.898438 311.605469 669.3125 C 311.738281 680.726562 311.128906 691.398438 310.542969 701.214844 C 310.21875 706.136719 310.007812 710.832031 309.816406 715.316406 C 309.605469 719.804688 309.570312 724.070312 309.660156 728.082031 C 309.839844 736.121094 310.78125 743.171875 312.722656 749.074219 C 314.628906 754.988281 317.59375 759.757812 320.722656 763.371094 C 323.832031 767 326.960938 769.503906 329.148438 771.125 C 330.226562 771.972656 331.121094 772.539062 331.703125 772.957031 C 332.292969 773.375 332.601562 773.59375 332.601562 773.59375 C 332.601562 773.59375 332.230469 773.539062 331.519531 773.4375 C 330.816406 773.3125 329.714844 773.238281 328.351562 772.90625 C 327.660156 772.757812 326.882812 772.578125 326.03125 772.398438 C 325.1875 772.136719 324.265625 771.867188 323.273438 771.578125 C 322.292969 771.234375 321.226562 770.84375 320.09375 770.402344 C 319.007812 769.871094 317.78125 769.410156 316.585938 768.71875 C 311.6875 766.1875 306.019531 761.800781 301.273438 755.21875 C 298.875 751.96875 296.8125 748.183594 294.972656 744.132812 C 293.144531 740.058594 291.699219 735.660156 290.410156 731.09375 C 289.144531 726.527344 288.21875 721.769531 287.34375 716.90625 C 286.496094 712.039062 285.886719 707.058594 285.242188 702.019531 C 284.027344 691.945312 283.125 681.597656 281.808594 671.328125 C 280.484375 661.082031 278.75 650.890625 275.960938 641.300781 C 273.210938 631.679688 269.324219 622.730469 264.152344 614.65625 L 262.164062 611.679688 C 261.445312 610.71875 260.773438 609.722656 260.03125 608.78125 C 259.261719 607.855469 258.582031 606.867188 257.785156 605.96875 C 257.019531 605.058594 256.222656 604.0625 255.503906 603.316406 L 254.410156 602.097656 L 254.140625 601.792969 L 253.765625 601.414062 L 253.007812 600.644531 L 250.144531 597.707031 C 248.015625 595.5 245.796875 593.390625 243.785156 591.109375 C 235.511719 582.164062 228.171875 572.652344 221.863281 562.984375 C 215.550781 553.324219 210.25 543.515625 205.960938 533.945312 C 201.640625 524.375 198.335938 515.039062 195.8125 506.3125 C 193.3125 497.578125 191.597656 489.460938 190.476562 482.214844 C 189.359375 474.972656 188.804688 468.617188 188.613281 463.378906 C 188.390625 458.148438 188.519531 454.03125 188.6875 451.238281 C 188.859375 448.441406 189.082031 446.960938 189.082031 446.960938 " fill-opacity="1" fill-rule="nonzero"/><g clip-path="url(#7f96ac3906)"><path fill="#ffffff" d="M 450.855469 743.996094 C 438.773438 752.792969 420.488281 759.679688 400.023438 759.679688 C 379.5625 759.679688 361.28125 752.792969 349.203125 743.996094 C 343.121094 748.050781 339.578125 752.871094 339.578125 758.054688 C 339.578125 772.414062 366.640625 792.359375 400.023438 792.359375 C 433.414062 792.359375 460.46875 772.414062 460.46875 758.054688 C 460.46875 752.871094 456.929688 748.050781 450.855469 743.996094 " fill-opacity="1" fill-rule="nonzero"/></g><g fill="#ffffff" fill-opacity="1"><g transform="translate(142.421102, 231.298192)"><g><path d="M 33.203125 -119.25 L 70.703125 -112.90625 C 77.109375 -111.820312 82.847656 -109.945312 87.921875 -107.28125 C 93.003906 -104.613281 97.242188 -101.410156 100.640625 -97.671875 C 104.046875 -93.929688 106.484375 -89.789062 107.953125 -85.25 C 109.421875 -80.707031 109.738281 -75.960938 108.90625 -71.015625 C 108.050781 -65.941406 106.164062 -61.570312 103.25 -57.90625 C 100.332031 -54.25 96.679688 -51.238281 92.296875 -48.875 C 96.859375 -44.988281 100.160156 -40.445312 102.203125 -35.25 C 104.242188 -30.0625 104.773438 -24.570312 103.796875 -18.78125 C 102.941406 -13.707031 101.066406 -9.207031 98.171875 -5.28125 C 95.273438 -1.363281 91.59375 1.859375 87.125 4.390625 C 82.65625 6.929688 77.582031 8.617188 71.90625 9.453125 C 66.238281 10.296875 60.203125 10.175781 53.796875 9.09375 L 12.671875 2.140625 Z M 55.984375 -14.765625 C 60.804688 -13.953125 64.71875 -14.53125 67.71875 -16.5 C 70.726562 -18.46875 72.570312 -21.445312 73.25 -25.4375 C 73.925781 -29.414062 73.207031 -32.890625 71.09375 -35.859375 C 68.988281 -38.828125 65.460938 -40.726562 60.515625 -41.5625 L 51.984375 -43 L 47.453125 -16.203125 Z M 62.484375 -64.34375 C 66.472656 -63.664062 69.875 -64.300781 72.6875 -66.25 C 75.507812 -68.195312 77.242188 -71.101562 77.890625 -74.96875 C 78.523438 -78.71875 77.816406 -81.878906 75.765625 -84.453125 C 73.722656 -87.035156 70.707031 -88.664062 66.71875 -89.34375 L 60.015625 -90.46875 L 55.78125 -65.46875 Z M 62.484375 -64.34375 "/></g></g></g><g fill="#ffffff" fill-opacity="1"><g transform="translate(251.72129, 250.041294)"><g><path d="M 63.03125 7.28125 C 55.570312 6.75 48.789062 4.972656 42.6875 1.953125 C 36.582031 -1.054688 31.4375 -5.046875 27.25 -10.015625 C 23.0625 -14.984375 19.910156 -20.734375 17.796875 -27.265625 C 15.679688 -33.804688 14.894531 -40.863281 15.4375 -48.4375 L 20.71875 -121.9375 L 51.875 -119.703125 L 46.59375 -46.203125 C 46.101562 -39.367188 47.570312 -33.738281 51 -29.3125 C 54.4375 -24.894531 59.265625 -22.460938 65.484375 -22.015625 C 71.597656 -21.578125 76.695312 -23.300781 80.78125 -27.1875 C 84.863281 -31.070312 87.148438 -36.429688 87.640625 -43.265625 L 92.921875 -116.765625 L 123.34375 -114.578125 L 118.0625 -41.078125 C 117.519531 -33.503906 115.738281 -26.628906 112.71875 -20.453125 C 109.695312 -14.285156 105.757812 -9.039062 100.90625 -4.71875 C 96.0625 -0.40625 90.398438 2.804688 83.921875 4.921875 C 77.441406 7.035156 70.476562 7.820312 63.03125 7.28125 Z M 63.03125 7.28125 "/></g></g></g><g fill="#ffffff" fill-opacity="1"><g transform="translate(383.059531, 258.425178)"><g><path d="M 10.671875 -123.328125 L 41.90625 -123.875 L 43.578125 -30.171875 L 83.984375 -30.890625 L 84.5 -1.5 L 12.859375 -0.234375 Z M 10.671875 -123.328125 "/></g></g></g><g fill="#ffffff" fill-opacity="1"><g transform="translate(477.093147, 256.600358)"><g><path d="M 1.484375 -123.78125 L 32.578125 -126.65625 L 41.203125 -33.328125 L 81.453125 -37.03125 L 84.15625 -7.765625 L 12.8125 -1.1875 Z M 1.484375 -123.78125 "/></g></g></g><g fill="#ffffff" fill-opacity="1"><g transform="translate(570.962716, 247.944849)"><g><path d="M 47.890625 -4.5 C 38.109375 -2.820312 29.003906 -3.523438 20.578125 -6.609375 C 12.148438 -9.703125 4.925781 -15.019531 -1.09375 -22.5625 L 16.796875 -43.34375 C 20.492188 -38.394531 24.515625 -34.863281 28.859375 -32.75 C 33.203125 -30.632812 37.785156 -29.992188 42.609375 -30.828125 C 46.472656 -31.484375 49.429688 -32.890625 51.484375 -35.046875 C 53.535156 -37.203125 54.328125 -39.664062 53.859375 -42.4375 C 53.628906 -43.757812 53.113281 -44.941406 52.3125 -45.984375 C 51.507812 -47.035156 50.347656 -48.019531 48.828125 -48.9375 C 47.304688 -49.851562 45.257812 -50.710938 42.6875 -51.515625 C 40.125 -52.316406 37.007812 -53.273438 33.34375 -54.390625 C 21.351562 -57.671875 12.320312 -61.957031 6.25 -67.25 C 0.175781 -72.550781 -3.59375 -79.488281 -5.0625 -88.0625 C -6.039062 -93.738281 -5.898438 -99.070312 -4.640625 -104.0625 C -3.390625 -109.0625 -1.203125 -113.507812 1.921875 -117.40625 C 5.046875 -121.300781 9.015625 -124.59375 13.828125 -127.28125 C 18.648438 -129.976562 24.082031 -131.847656 30.125 -132.890625 C 38.09375 -134.253906 45.617188 -133.832031 52.703125 -131.625 C 59.785156 -129.425781 66.753906 -125.378906 73.609375 -119.484375 L 57 -97.984375 C 52.8125 -101.984375 48.972656 -104.738281 45.484375 -106.25 C 42.003906 -107.757812 38.394531 -108.195312 34.65625 -107.5625 C 31.15625 -106.957031 28.566406 -105.734375 26.890625 -103.890625 C 25.210938 -102.054688 24.613281 -99.75 25.09375 -96.96875 C 25.71875 -93.34375 27.84375 -90.753906 31.46875 -89.203125 C 35.09375 -87.660156 39.820312 -86.144531 45.65625 -84.65625 C 57.757812 -81.507812 66.921875 -77.207031 73.140625 -71.75 C 79.359375 -66.300781 83.21875 -59.226562 84.71875 -50.53125 C 85.707031 -44.738281 85.550781 -39.304688 84.25 -34.234375 C 82.957031 -29.171875 80.664062 -24.613281 77.375 -20.5625 C 74.09375 -16.519531 69.957031 -13.101562 64.96875 -10.3125 C 59.976562 -7.53125 54.285156 -5.59375 47.890625 -4.5 Z M 47.890625 -4.5 "/></g></g></g><g fill="#ffffff" fill-opacity="1"><g transform="translate(257.044509, 87.134761)"><g><path d="M 13.15625 -50.90625 L 18.546875 -50.25 L 12.953125 -3.546875 L 33.8125 -1.046875 L 33.203125 3.984375 L 6.953125 0.828125 Z M 13.15625 -50.90625 "/></g></g></g><g fill="#ffffff" fill-opacity="1"><g transform="translate(294.590088, 91.70397)"><g><path d="M 26.390625 -51.703125 L 27.953125 -51.578125 L 43.40625 3.5 L 37.4375 3.015625 L 33.640625 -11.015625 L 13.953125 -12.609375 L 7.984375 0.640625 L 2.328125 0.1875 Z M 32.28125 -16.1875 L 26.03125 -39.328125 L 16.15625 -17.484375 Z M 32.28125 -16.1875 "/></g></g></g><g fill="#ffffff" fill-opacity="1"><g transform="translate(341.40443, 95.580545)"><g><path d="M 29.65625 1.75 C 26.082031 1.632812 22.75 0.835938 19.65625 -0.640625 C 16.570312 -2.117188 13.90625 -4.097656 11.65625 -6.578125 C 9.40625 -9.066406 7.660156 -11.9375 6.421875 -15.1875 C 5.179688 -18.445312 4.617188 -21.941406 4.734375 -25.671875 C 4.859375 -29.410156 5.660156 -32.898438 7.140625 -36.140625 C 8.628906 -39.390625 10.585938 -42.203125 13.015625 -44.578125 C 15.453125 -46.960938 18.273438 -48.800781 21.484375 -50.09375 C 24.691406 -51.382812 28.082031 -51.972656 31.65625 -51.859375 C 35.539062 -51.734375 39.140625 -50.800781 42.453125 -49.0625 C 45.765625 -47.320312 48.59375 -45.007812 50.9375 -42.125 L 46.71875 -38.765625 C 44.769531 -41.160156 42.484375 -43.023438 39.859375 -44.359375 C 37.234375 -45.691406 34.414062 -46.40625 31.40625 -46.5 C 28.5 -46.59375 25.8125 -46.132812 23.34375 -45.125 C 20.875 -44.125 18.703125 -42.695312 16.828125 -40.84375 C 14.953125 -38.988281 13.460938 -36.769531 12.359375 -34.1875 C 11.265625 -31.601562 10.671875 -28.78125 10.578125 -25.71875 C 10.472656 -22.664062 10.882812 -19.8125 11.8125 -17.15625 C 12.738281 -14.507812 14.078125 -12.195312 15.828125 -10.21875 C 17.578125 -8.25 19.675781 -6.675781 22.125 -5.5 C 24.570312 -4.332031 27.25 -3.703125 30.15625 -3.609375 C 33.425781 -3.503906 36.410156 -4.050781 39.109375 -5.25 C 41.816406 -6.457031 44.117188 -8.125 46.015625 -10.25 L 46.375 -21.421875 L 30.671875 -21.9375 L 30.84375 -27 L 51.984375 -26.3125 L 51.421875 -9.0625 C 48.753906 -5.457031 45.535156 -2.71875 41.765625 -0.84375 C 37.992188 1.03125 33.957031 1.894531 29.65625 1.75 Z M 29.65625 1.75 "/></g></g></g><g fill="#ffffff" fill-opacity="1"><g transform="translate(398.668811, 97.375198)"><g><path d="M 25.375 0.34375 C 22.570312 0.394531 20.003906 -0.0859375 17.671875 -1.109375 C 15.347656 -2.140625 13.351562 -3.597656 11.6875 -5.484375 C 10.019531 -7.378906 8.707031 -9.664062 7.75 -12.34375 C 6.800781 -15.019531 6.300781 -17.992188 6.25 -21.265625 L 5.703125 -52.203125 L 11.140625 -52.296875 L 11.671875 -21.828125 C 11.710938 -19.234375 12.078125 -16.867188 12.765625 -14.734375 C 13.453125 -12.597656 14.40625 -10.785156 15.625 -9.296875 C 16.851562 -7.804688 18.3125 -6.660156 20 -5.859375 C 21.695312 -5.066406 23.582031 -4.691406 25.65625 -4.734375 C 27.726562 -4.765625 29.601562 -5.207031 31.28125 -6.0625 C 32.957031 -6.925781 34.375 -8.117188 35.53125 -9.640625 C 36.695312 -11.171875 37.582031 -13.015625 38.1875 -15.171875 C 38.800781 -17.335938 39.085938 -19.71875 39.046875 -22.3125 L 38.515625 -52.78125 L 43.8125 -52.875 L 44.359375 -21.9375 C 44.410156 -18.664062 43.976562 -15.671875 43.0625 -12.953125 C 42.15625 -10.242188 40.859375 -7.914062 39.171875 -5.96875 C 37.492188 -4.019531 35.472656 -2.492188 33.109375 -1.390625 C 30.742188 -0.285156 28.164062 0.289062 25.375 0.34375 Z M 25.375 0.34375 "/></g></g></g><g fill="#ffffff" fill-opacity="1"><g transform="translate(451.134845, 96.495601)"><g><path d="M 9.515625 -41.25 L 12.25 -0.828125 L 6.984375 -0.46875 L 3.359375 -54 L 4.90625 -54.109375 L 42.828125 -14.515625 L 40.09375 -54.9375 L 45.375 -55.28125 L 49 -1.734375 L 47.4375 -1.640625 Z M 9.515625 -41.25 "/></g></g></g><g fill="#ffffff" fill-opacity="1"><g transform="translate(508.069142, 92.501204)"><g><path d="M 15.859375 -55.84375 L 17.40625 -56.015625 L 43.265625 -5 L 37.3125 -4.3125 L 30.859375 -17.34375 L 11.25 -15.078125 L 7.96875 -0.921875 L 2.3125 -0.265625 Z M 28.515625 -22.15625 L 17.890625 -43.625 L 12.453125 -20.296875 Z M 28.515625 -22.15625 "/></g></g></g></svg>