<svg xmlns="http://www.w3.org/2000/svg" xmlns:xlink="http://www.w3.org/1999/xlink" width="110" zoomAndPan="magnify" viewBox="0 0 82.5 30.000001" height="40" preserveAspectRatio="xMidYMid meet" version="1.0"><defs><g/><clipPath id="fd33d40807"><path d="M 8.476562 0 L 37.6875 0 L 37.6875 29.03125 L 8.476562 29.03125 Z M 8.476562 0 " clip-rule="nonzero"/></clipPath><clipPath id="09fe0f2da0"><path d="M 23.082031 0 C 15.015625 0 8.476562 6.539062 8.476562 14.605469 C 8.476562 22.667969 15.015625 29.207031 23.082031 29.207031 C 31.148438 29.207031 37.6875 22.667969 37.6875 14.605469 C 37.6875 6.539062 31.148438 0 23.082031 0 " clip-rule="nonzero"/></clipPath><clipPath id="4bfab76e0b"><path d="M 15 12 L 30.988281 12 L 30.988281 24.777344 L 15 24.777344 Z M 15 12 " clip-rule="nonzero"/></clipPath><clipPath id="68b637ef48"><path d="M 27 4.4375 L 33 4.4375 L 33 14 L 27 14 Z M 27 4.4375 " clip-rule="nonzero"/></clipPath><clipPath id="4b2e8f4aae"><path d="M 29 12 L 33.203125 12 L 33.203125 15.296875 L 29 15.296875 Z M 29 12 " clip-rule="nonzero"/></clipPath><clipPath id="5ebeb72b0c"><path d="M 12.953125 4.4375 L 19 4.4375 L 19 14 L 12.953125 14 Z M 12.953125 4.4375 " clip-rule="nonzero"/></clipPath><clipPath id="a9fb329a16"><path d="M 13 12 L 18 12 L 18 15.296875 L 13 15.296875 Z M 13 12 " clip-rule="nonzero"/></clipPath><clipPath id="a008997038"><path d="M 24 13 L 29 13 L 29 15.296875 L 24 15.296875 Z M 24 13 " clip-rule="nonzero"/></clipPath><clipPath id="f324f6993f"><path d="M 17 13 L 22 13 L 22 15.296875 L 17 15.296875 Z M 17 13 " clip-rule="nonzero"/></clipPath></defs><g fill="#4308b1" fill-opacity="1"><g transform="translate(40.255965, 21.916945)"><g><path d="M 1.03125 -9.9375 L 4.109375 -9.9375 C 4.628906 -9.9375 5.109375 -9.863281 5.546875 -9.71875 C 5.992188 -9.582031 6.378906 -9.382812 6.703125 -9.125 C 7.023438 -8.875 7.273438 -8.578125 7.453125 -8.234375 C 7.628906 -7.898438 7.71875 -7.53125 7.71875 -7.125 C 7.71875 -6.707031 7.625 -6.332031 7.4375 -6 C 7.257812 -5.664062 7.007812 -5.378906 6.6875 -5.140625 C 7.101562 -4.890625 7.425781 -4.570312 7.65625 -4.1875 C 7.894531 -3.800781 8.015625 -3.367188 8.015625 -2.890625 C 8.015625 -2.472656 7.925781 -2.085938 7.75 -1.734375 C 7.570312 -1.390625 7.320312 -1.085938 7 -0.828125 C 6.675781 -0.566406 6.289062 -0.363281 5.84375 -0.21875 C 5.40625 -0.0703125 4.925781 0 4.40625 0 L 1.03125 0 Z M 4.265625 -1.921875 C 4.660156 -1.921875 4.960938 -2.019531 5.171875 -2.21875 C 5.378906 -2.414062 5.484375 -2.679688 5.484375 -3.015625 C 5.484375 -3.335938 5.378906 -3.601562 5.171875 -3.8125 C 4.972656 -4.019531 4.671875 -4.125 4.265625 -4.125 L 3.5625 -4.125 L 3.5625 -1.921875 Z M 4.109375 -5.96875 C 4.429688 -5.96875 4.691406 -6.0625 4.890625 -6.25 C 5.085938 -6.445312 5.1875 -6.703125 5.1875 -7.015625 C 5.1875 -7.328125 5.085938 -7.570312 4.890625 -7.75 C 4.691406 -7.925781 4.429688 -8.015625 4.109375 -8.015625 L 3.5625 -8.015625 L 3.5625 -5.96875 Z M 4.109375 -5.96875 "/></g></g></g><g fill="#4308b1" fill-opacity="1"><g transform="translate(48.786981, 21.916945)"><g><path d="M 5.125 0.21875 C 4.519531 0.21875 3.960938 0.113281 3.453125 -0.09375 C 2.941406 -0.300781 2.503906 -0.59375 2.140625 -0.96875 C 1.773438 -1.34375 1.488281 -1.785156 1.28125 -2.296875 C 1.070312 -2.816406 0.96875 -3.382812 0.96875 -4 L 0.96875 -9.9375 L 3.484375 -9.9375 L 3.484375 -4 C 3.484375 -3.4375 3.632812 -2.988281 3.9375 -2.65625 C 4.238281 -2.320312 4.644531 -2.15625 5.15625 -2.15625 C 5.644531 -2.15625 6.039062 -2.320312 6.34375 -2.65625 C 6.65625 -2.988281 6.8125 -3.4375 6.8125 -4 L 6.8125 -9.9375 L 9.28125 -9.9375 L 9.28125 -4 C 9.28125 -3.382812 9.175781 -2.816406 8.96875 -2.296875 C 8.757812 -1.785156 8.472656 -1.34375 8.109375 -0.96875 C 7.742188 -0.59375 7.304688 -0.300781 6.796875 -0.09375 C 6.285156 0.113281 5.726562 0.21875 5.125 0.21875 Z M 5.125 0.21875 "/></g></g></g><g fill="#4308b1" fill-opacity="1"><g transform="translate(59.0242, 21.916945)"><g><path d="M 1.03125 -9.9375 L 3.5625 -9.9375 L 3.5625 -2.375 L 6.828125 -2.375 L 6.828125 0 L 1.03125 0 Z M 1.03125 -9.9375 "/></g></g></g><g fill="#4308b1" fill-opacity="1"><g transform="translate(66.294106, 21.916945)"><g><path d="M 1.03125 -9.9375 L 3.5625 -9.9375 L 3.5625 -2.375 L 6.828125 -2.375 L 6.828125 0 L 1.03125 0 Z M 1.03125 -9.9375 "/></g></g></g><g clip-path="url(#fd33d40807)"><g clip-path="url(#09fe0f2da0)"><path fill="#4308b1" d="M 8.476562 0 L 37.6875 0 L 37.6875 29.207031 L 8.476562 29.207031 Z M 8.476562 0 " fill-opacity="1" fill-rule="nonzero"/></g></g><g clip-path="url(#4bfab76e0b)"><path fill="#ffffff" d="M 30.902344 17.851562 L 30.714844 17.324219 C 30.613281 17.035156 30.289062 16.796875 30 16.796875 L 29.335938 16.796875 C 28.84375 15.417969 28.246094 13.746094 28.058594 13.355469 C 27.785156 12.742188 26.917969 12.46875 26.441406 12.332031 C 26.441406 12.332031 25.640625 12.027344 22.96875 12.027344 C 20.292969 12.027344 19.511719 12.332031 19.511719 12.332031 C 18.949219 12.519531 18.164062 12.792969 17.859375 13.371094 C 17.707031 13.660156 17.09375 15.367188 16.597656 16.796875 L 15.953125 16.796875 C 15.660156 16.796875 15.339844 17.035156 15.234375 17.324219 L 15.046875 17.851562 C 14.945312 18.140625 15.101562 18.378906 15.390625 18.378906 L 16.054688 18.378906 C 15.96875 18.617188 15.917969 18.753906 15.917969 18.753906 C 15.867188 18.839844 15.832031 19.230469 15.832031 19.351562 L 15.832031 24.171875 C 15.832031 24.476562 16.085938 24.734375 16.394531 24.734375 L 18.4375 24.734375 C 18.746094 24.734375 19 24.476562 19 24.171875 L 19 23.148438 L 26.953125 23.148438 L 26.953125 24.171875 C 26.953125 24.476562 27.207031 24.734375 27.515625 24.734375 L 29.574219 24.734375 C 29.882812 24.734375 30.136719 24.476562 30.136719 24.171875 L 30.136719 19.351562 C 30.136719 19.25 30.101562 18.839844 30.050781 18.753906 C 30.050781 18.753906 30 18.617188 29.914062 18.378906 L 30.5625 18.378906 C 30.835938 18.378906 30.988281 18.140625 30.902344 17.851562 Z M 19 20.816406 L 18.320312 20.355469 C 17.058594 20.253906 16.90625 20.695312 16.632812 20.21875 L 16.632812 19.640625 C 16.632812 19.078125 16.957031 19.0625 17.3125 19.0625 C 17.652344 19.0625 18.335938 19.351562 18.796875 19.554688 C 19.289062 19.777344 19.648438 19.589844 19.835938 20.320312 C 19.816406 20.664062 19.628906 20.816406 19 20.816406 Z M 17.808594 17.015625 C 18.234375 15.28125 18.949219 14.070312 19.050781 13.78125 C 19.117188 13.578125 18.949219 13.203125 22.984375 13.203125 C 27.019531 13.203125 26.800781 13.746094 26.816406 13.765625 C 27.003906 14.15625 27.753906 15.433594 28.144531 17.015625 C 28.144531 17.015625 26.628906 17.222656 23.171875 17.222656 C 19.714844 17.222656 17.808594 17.015625 17.808594 17.015625 Z M 26.136719 20.320312 C 26.9375 19.332031 26.679688 19.777344 27.175781 19.554688 C 27.617188 19.351562 28.316406 19.0625 28.65625 19.0625 C 29.011719 19.0625 29.335938 19.078125 29.335938 19.640625 L 29.335938 20.21875 C 29.082031 20.679688 28.859375 20.269531 27.582031 20.390625 L 26.953125 20.796875 C 26.324219 20.816406 25.914062 20.578125 26.136719 20.320312 Z M 26.136719 20.320312 " fill-opacity="1" fill-rule="nonzero"/></g><g clip-path="url(#68b637ef48)"><path fill="#ffffff" d="M 27.316406 12.445312 C 27.417969 12.933594 27.921875 13.222656 28.394531 13.066406 C 28.402344 13.0625 28.40625 13.0625 28.414062 13.058594 C 28.691406 12.96875 29.015625 12.855469 29.363281 12.722656 C 29.714844 12.585938 30.089844 12.429688 30.457031 12.238281 L 30.59375 12.167969 L 30.664062 12.128906 L 30.730469 12.089844 C 30.777344 12.066406 30.824219 12.039062 30.867188 12.015625 C 30.914062 11.988281 30.957031 11.960938 31 11.933594 C 31.046875 11.902344 31.089844 11.878906 31.132812 11.847656 C 31.175781 11.820312 31.21875 11.792969 31.261719 11.761719 C 31.285156 11.75 31.304688 11.734375 31.324219 11.71875 C 31.347656 11.703125 31.371094 11.6875 31.390625 11.671875 C 31.4375 11.640625 31.476562 11.605469 31.519531 11.574219 C 31.851562 11.3125 32.117188 11.027344 32.316406 10.753906 C 32.414062 10.617188 32.496094 10.488281 32.566406 10.367188 C 32.632812 10.246094 32.683594 10.136719 32.722656 10.042969 C 32.734375 10.019531 32.742188 10 32.75 9.976562 C 32.757812 9.957031 32.765625 9.9375 32.773438 9.917969 C 32.785156 9.882812 32.796875 9.851562 32.804688 9.824219 C 32.824219 9.773438 32.832031 9.746094 32.832031 9.746094 C 32.832031 9.746094 32.835938 9.738281 32.839844 9.726562 C 32.84375 9.710938 32.847656 9.691406 32.855469 9.664062 C 32.863281 9.640625 32.871094 9.605469 32.878906 9.566406 C 32.890625 9.527344 32.898438 9.484375 32.90625 9.433594 C 32.914062 9.410156 32.917969 9.382812 32.921875 9.355469 C 32.925781 9.324219 32.929688 9.296875 32.933594 9.265625 C 32.9375 9.234375 32.941406 9.203125 32.941406 9.167969 C 32.945312 9.136719 32.949219 9.101562 32.949219 9.066406 C 32.953125 8.921875 32.949219 8.757812 32.917969 8.582031 C 32.910156 8.539062 32.902344 8.496094 32.890625 8.449219 C 32.878906 8.40625 32.867188 8.363281 32.855469 8.316406 C 32.839844 8.273438 32.828125 8.226562 32.8125 8.179688 C 32.792969 8.136719 32.777344 8.09375 32.757812 8.050781 C 32.683594 7.875 32.585938 7.699219 32.472656 7.535156 C 32.359375 7.371094 32.226562 7.222656 32.089844 7.078125 C 31.949219 6.9375 31.804688 6.808594 31.660156 6.683594 C 31.367188 6.433594 31.078125 6.210938 30.824219 5.980469 C 30.574219 5.75 30.363281 5.515625 30.226562 5.285156 C 30.160156 5.167969 30.113281 5.054688 30.085938 4.953125 C 30.0625 4.847656 30.058594 4.75 30.070312 4.671875 C 30.070312 4.664062 30.070312 4.652344 30.074219 4.644531 C 30.074219 4.636719 30.078125 4.625 30.078125 4.617188 C 30.082031 4.601562 30.085938 4.582031 30.089844 4.570312 C 30.097656 4.554688 30.101562 4.539062 30.105469 4.527344 C 30.109375 4.515625 30.113281 4.503906 30.121094 4.496094 C 30.140625 4.457031 30.152344 4.4375 30.152344 4.4375 C 30.152344 4.4375 30.136719 4.453125 30.109375 4.488281 C 30.101562 4.496094 30.097656 4.507812 30.089844 4.519531 C 30.082031 4.53125 30.074219 4.542969 30.066406 4.558594 C 30.058594 4.574219 30.050781 4.589844 30.042969 4.605469 C 30.039062 4.613281 30.035156 4.621094 30.03125 4.632812 C 30.027344 4.640625 30.023438 4.652344 30.023438 4.660156 C 29.992188 4.742188 29.976562 4.847656 29.984375 4.964844 C 29.992188 5.085938 30.019531 5.21875 30.066406 5.359375 C 30.164062 5.636719 30.34375 5.929688 30.558594 6.21875 C 30.773438 6.507812 31.027344 6.792969 31.253906 7.078125 C 31.367188 7.21875 31.476562 7.363281 31.570312 7.503906 C 31.664062 7.648438 31.746094 7.789062 31.804688 7.925781 C 31.867188 8.066406 31.910156 8.199219 31.9375 8.328125 C 31.941406 8.359375 31.949219 8.390625 31.953125 8.421875 C 31.957031 8.449219 31.960938 8.480469 31.964844 8.507812 C 31.964844 8.535156 31.96875 8.566406 31.96875 8.59375 C 31.96875 8.617188 31.96875 8.644531 31.96875 8.671875 C 31.964844 8.777344 31.949219 8.871094 31.929688 8.949219 C 31.925781 8.972656 31.917969 8.992188 31.914062 9.011719 C 31.910156 9.027344 31.902344 9.046875 31.898438 9.0625 C 31.890625 9.082031 31.886719 9.097656 31.878906 9.113281 C 31.875 9.128906 31.867188 9.144531 31.863281 9.160156 C 31.851562 9.1875 31.839844 9.210938 31.828125 9.234375 C 31.820312 9.253906 31.8125 9.273438 31.804688 9.289062 C 31.796875 9.300781 31.789062 9.3125 31.785156 9.320312 C 31.78125 9.328125 31.78125 9.332031 31.78125 9.332031 C 31.78125 9.332031 31.769531 9.347656 31.753906 9.378906 C 31.746094 9.390625 31.734375 9.410156 31.722656 9.429688 C 31.714844 9.441406 31.710938 9.453125 31.703125 9.464844 C 31.695312 9.476562 31.6875 9.488281 31.675781 9.5 C 31.640625 9.550781 31.59375 9.613281 31.535156 9.683594 C 31.480469 9.75 31.410156 9.824219 31.324219 9.902344 C 31.160156 10.054688 30.941406 10.210938 30.695312 10.335938 C 30.664062 10.351562 30.632812 10.367188 30.601562 10.382812 C 30.585938 10.390625 30.570312 10.398438 30.550781 10.402344 C 30.535156 10.410156 30.515625 10.417969 30.5 10.425781 C 30.464844 10.441406 30.425781 10.457031 30.390625 10.472656 C 30.355469 10.488281 30.316406 10.5 30.28125 10.515625 C 30.242188 10.527344 30.207031 10.542969 30.167969 10.558594 C 30.128906 10.570312 30.089844 10.582031 30.050781 10.597656 L 29.992188 10.617188 L 29.933594 10.632812 L 29.816406 10.667969 C 29.175781 10.855469 28.480469 10.957031 27.945312 11.027344 C 27.941406 11.027344 27.9375 11.027344 27.933594 11.03125 C 27.449219 11.09375 27.125 11.554688 27.226562 12.035156 L 27.316406 12.445312 " fill-opacity="1" fill-rule="nonzero"/></g><g clip-path="url(#4b2e8f4aae)"><path fill="#ffffff" d="M 31.039062 13.191406 C 29.640625 12.265625 29.089844 13.355469 29.089844 13.355469 C 30.839844 16.824219 33.199219 14.019531 33.199219 14.019531 C 33.199219 14.019531 32.441406 14.117188 31.039062 13.191406 " fill-opacity="1" fill-rule="nonzero"/></g><g clip-path="url(#5ebeb72b0c)"><path fill="#ffffff" d="M 18.601562 12.445312 C 18.496094 12.933594 17.996094 13.222656 17.523438 13.066406 C 17.515625 13.0625 17.507812 13.0625 17.5 13.058594 C 17.226562 12.96875 16.902344 12.855469 16.550781 12.722656 C 16.203125 12.585938 15.828125 12.429688 15.457031 12.238281 L 15.320312 12.167969 L 15.25 12.128906 L 15.183594 12.089844 C 15.136719 12.066406 15.09375 12.039062 15.046875 12.015625 C 15.003906 11.988281 14.957031 11.960938 14.914062 11.933594 C 14.871094 11.902344 14.824219 11.878906 14.78125 11.847656 C 14.738281 11.820312 14.695312 11.792969 14.652344 11.761719 C 14.632812 11.75 14.609375 11.734375 14.589844 11.71875 C 14.566406 11.703125 14.546875 11.6875 14.523438 11.671875 C 14.480469 11.640625 14.4375 11.605469 14.394531 11.574219 C 14.0625 11.3125 13.796875 11.027344 13.601562 10.753906 C 13.5 10.617188 13.417969 10.488281 13.351562 10.367188 C 13.285156 10.246094 13.230469 10.136719 13.191406 10.042969 C 13.183594 10.019531 13.175781 10 13.164062 9.976562 C 13.15625 9.957031 13.148438 9.9375 13.144531 9.917969 C 13.128906 9.882812 13.117188 9.851562 13.109375 9.824219 C 13.09375 9.773438 13.082031 9.746094 13.082031 9.746094 C 13.082031 9.746094 13.082031 9.738281 13.078125 9.726562 C 13.074219 9.710938 13.066406 9.691406 13.0625 9.664062 C 13.054688 9.640625 13.042969 9.605469 13.035156 9.566406 C 13.027344 9.527344 13.015625 9.484375 13.007812 9.433594 C 13.003906 9.410156 13 9.382812 12.992188 9.355469 C 12.988281 9.324219 12.984375 9.296875 12.980469 9.265625 C 12.976562 9.234375 12.976562 9.203125 12.972656 9.167969 C 12.96875 9.136719 12.96875 9.101562 12.96875 9.066406 C 12.960938 8.921875 12.96875 8.757812 12.996094 8.582031 C 13.003906 8.539062 13.015625 8.496094 13.023438 8.449219 C 13.035156 8.40625 13.046875 8.363281 13.058594 8.316406 C 13.074219 8.273438 13.089844 8.226562 13.105469 8.179688 C 13.121094 8.136719 13.136719 8.09375 13.15625 8.050781 C 13.230469 7.875 13.328125 7.699219 13.445312 7.535156 C 13.558594 7.371094 13.691406 7.222656 13.828125 7.078125 C 13.964844 6.9375 14.109375 6.808594 14.257812 6.683594 C 14.546875 6.433594 14.839844 6.210938 15.089844 5.980469 C 15.339844 5.75 15.554688 5.515625 15.6875 5.285156 C 15.753906 5.167969 15.800781 5.054688 15.828125 4.953125 C 15.855469 4.847656 15.859375 4.75 15.847656 4.671875 C 15.84375 4.664062 15.84375 4.652344 15.84375 4.644531 C 15.839844 4.636719 15.839844 4.625 15.835938 4.617188 C 15.832031 4.601562 15.828125 4.582031 15.824219 4.570312 C 15.820312 4.554688 15.8125 4.539062 15.808594 4.527344 C 15.804688 4.515625 15.800781 4.503906 15.796875 4.496094 C 15.777344 4.457031 15.765625 4.4375 15.765625 4.4375 C 15.765625 4.4375 15.78125 4.453125 15.808594 4.488281 C 15.8125 4.496094 15.820312 4.507812 15.828125 4.519531 C 15.835938 4.53125 15.84375 4.542969 15.851562 4.558594 C 15.859375 4.574219 15.863281 4.589844 15.871094 4.605469 C 15.875 4.613281 15.878906 4.621094 15.882812 4.632812 C 15.886719 4.640625 15.890625 4.652344 15.894531 4.660156 C 15.921875 4.742188 15.9375 4.847656 15.933594 4.964844 C 15.925781 5.085938 15.898438 5.21875 15.847656 5.359375 C 15.75 5.636719 15.570312 5.929688 15.355469 6.21875 C 15.140625 6.507812 14.890625 6.792969 14.660156 7.078125 C 14.546875 7.21875 14.441406 7.363281 14.347656 7.503906 C 14.253906 7.648438 14.171875 7.789062 14.109375 7.925781 C 14.050781 8.066406 14.007812 8.199219 13.980469 8.328125 C 13.972656 8.359375 13.96875 8.390625 13.960938 8.421875 C 13.957031 8.449219 13.953125 8.480469 13.953125 8.507812 C 13.949219 8.535156 13.949219 8.566406 13.945312 8.59375 C 13.945312 8.617188 13.945312 8.644531 13.945312 8.671875 C 13.949219 8.777344 13.964844 8.871094 13.984375 8.949219 C 13.988281 8.972656 13.996094 8.992188 14 9.011719 C 14.007812 9.027344 14.011719 9.046875 14.019531 9.0625 C 14.023438 9.082031 14.03125 9.097656 14.035156 9.113281 C 14.042969 9.128906 14.046875 9.144531 14.054688 9.160156 C 14.0625 9.1875 14.074219 9.210938 14.085938 9.234375 C 14.09375 9.253906 14.105469 9.273438 14.113281 9.289062 C 14.121094 9.300781 14.125 9.3125 14.128906 9.320312 C 14.132812 9.328125 14.136719 9.332031 14.136719 9.332031 C 14.136719 9.332031 14.144531 9.347656 14.160156 9.378906 C 14.167969 9.390625 14.179688 9.410156 14.191406 9.429688 C 14.199219 9.441406 14.207031 9.453125 14.214844 9.464844 C 14.222656 9.476562 14.230469 9.488281 14.238281 9.5 C 14.273438 9.550781 14.320312 9.613281 14.378906 9.683594 C 14.4375 9.75 14.507812 9.824219 14.589844 9.902344 C 14.753906 10.054688 14.972656 10.210938 15.222656 10.335938 C 15.253906 10.351562 15.285156 10.367188 15.316406 10.382812 C 15.332031 10.390625 15.347656 10.398438 15.363281 10.402344 C 15.378906 10.410156 15.398438 10.417969 15.417969 10.425781 C 15.453125 10.441406 15.488281 10.457031 15.523438 10.472656 C 15.558594 10.488281 15.597656 10.5 15.636719 10.515625 C 15.671875 10.527344 15.710938 10.542969 15.746094 10.558594 C 15.785156 10.570312 15.824219 10.582031 15.863281 10.597656 L 15.921875 10.617188 L 15.980469 10.632812 L 16.101562 10.667969 C 16.738281 10.855469 17.4375 10.957031 17.972656 11.027344 C 17.976562 11.027344 17.976562 11.027344 17.980469 11.03125 C 18.464844 11.09375 18.792969 11.554688 18.691406 12.035156 L 18.601562 12.445312 " fill-opacity="1" fill-rule="nonzero"/></g><g clip-path="url(#a9fb329a16)"><path fill="#ffffff" d="M 15.398438 13.191406 C 16.796875 12.265625 17.347656 13.355469 17.347656 13.355469 C 15.597656 16.824219 13.238281 14.019531 13.238281 14.019531 C 13.238281 14.019531 13.996094 14.117188 15.398438 13.191406 " fill-opacity="1" fill-rule="nonzero"/></g><g clip-path="url(#a008997038)"><path fill="#ffffff" d="M 28.28125 13.953125 C 28.28125 13.953125 28.289062 13.992188 28.292969 14.0625 C 28.296875 14.132812 28.300781 14.238281 28.292969 14.371094 C 28.289062 14.5 28.277344 14.660156 28.246094 14.84375 C 28.21875 15.027344 28.175781 15.230469 28.113281 15.453125 C 28.050781 15.671875 27.964844 15.90625 27.855469 16.148438 C 27.75 16.390625 27.613281 16.636719 27.457031 16.882812 C 27.296875 17.125 27.109375 17.367188 26.902344 17.589844 C 26.851562 17.648438 26.792969 17.703125 26.742188 17.757812 L 26.632812 17.867188 L 26.605469 17.898438 C 26.585938 17.917969 26.566406 17.945312 26.546875 17.964844 C 26.527344 17.988281 26.511719 18.015625 26.492188 18.039062 C 26.472656 18.0625 26.457031 18.085938 26.4375 18.109375 L 26.386719 18.1875 C 26.257812 18.390625 26.160156 18.613281 26.089844 18.859375 C 26.019531 19.101562 25.976562 19.355469 25.941406 19.617188 C 25.910156 19.875 25.886719 20.136719 25.855469 20.390625 C 25.839844 20.515625 25.824219 20.644531 25.800781 20.765625 C 25.78125 20.886719 25.757812 21.007812 25.726562 21.125 C 25.691406 21.238281 25.65625 21.347656 25.609375 21.453125 C 25.5625 21.554688 25.511719 21.648438 25.449219 21.730469 C 25.332031 21.898438 25.1875 22.007812 25.0625 22.074219 C 25.035156 22.089844 25.003906 22.101562 24.976562 22.113281 C 24.945312 22.125 24.921875 22.136719 24.894531 22.144531 C 24.871094 22.152344 24.847656 22.160156 24.824219 22.164062 C 24.804688 22.171875 24.785156 22.175781 24.765625 22.179688 C 24.734375 22.1875 24.703125 22.1875 24.6875 22.191406 C 24.667969 22.195312 24.660156 22.195312 24.660156 22.195312 C 24.660156 22.195312 24.667969 22.191406 24.683594 22.179688 C 24.695312 22.167969 24.71875 22.15625 24.746094 22.132812 C 24.800781 22.09375 24.882812 22.027344 24.960938 21.9375 C 25.039062 21.847656 25.113281 21.726562 25.160156 21.578125 C 25.210938 21.429688 25.234375 21.25 25.238281 21.046875 C 25.242188 20.945312 25.242188 20.839844 25.234375 20.726562 C 25.230469 20.613281 25.226562 20.492188 25.214844 20.371094 C 25.203125 20.121094 25.1875 19.851562 25.191406 19.566406 C 25.195312 19.277344 25.21875 18.96875 25.289062 18.652344 C 25.363281 18.335938 25.488281 18.015625 25.675781 17.726562 C 25.699219 17.691406 25.722656 17.65625 25.746094 17.621094 C 25.773438 17.585938 25.796875 17.550781 25.824219 17.515625 C 25.851562 17.484375 25.875 17.449219 25.90625 17.417969 C 25.933594 17.386719 25.960938 17.355469 25.992188 17.324219 L 26.039062 17.273438 L 26.0625 17.25 L 26.082031 17.234375 L 26.164062 17.15625 C 26.214844 17.109375 26.265625 17.0625 26.3125 17.015625 C 26.503906 16.828125 26.683594 16.636719 26.847656 16.4375 C 27.015625 16.238281 27.164062 16.039062 27.300781 15.839844 C 27.4375 15.644531 27.554688 15.449219 27.660156 15.261719 C 27.765625 15.078125 27.859375 14.90625 27.9375 14.746094 C 28.015625 14.589844 28.078125 14.449219 28.128906 14.332031 C 28.230469 14.097656 28.28125 13.953125 28.28125 13.953125 " fill-opacity="1" fill-rule="nonzero"/></g><g clip-path="url(#f324f6993f)"><path fill="#ffffff" d="M 17.632812 13.953125 C 17.632812 13.953125 17.683594 14.097656 17.785156 14.332031 C 17.839844 14.449219 17.902344 14.589844 17.980469 14.746094 C 18.058594 14.90625 18.148438 15.078125 18.253906 15.261719 C 18.359375 15.449219 18.480469 15.644531 18.617188 15.839844 C 18.75 16.039062 18.902344 16.238281 19.066406 16.4375 C 19.230469 16.636719 19.410156 16.828125 19.605469 17.015625 C 19.652344 17.0625 19.703125 17.109375 19.75 17.15625 L 19.835938 17.234375 L 19.855469 17.25 L 19.863281 17.261719 L 19.875 17.273438 L 19.921875 17.324219 C 19.957031 17.355469 19.980469 17.386719 20.011719 17.417969 C 20.039062 17.449219 20.066406 17.484375 20.09375 17.515625 C 20.117188 17.550781 20.144531 17.585938 20.167969 17.621094 C 20.195312 17.65625 20.21875 17.691406 20.242188 17.726562 C 20.425781 18.015625 20.554688 18.335938 20.625 18.652344 C 20.699219 18.96875 20.722656 19.277344 20.726562 19.566406 C 20.730469 19.851562 20.714844 20.121094 20.699219 20.371094 C 20.691406 20.492188 20.6875 20.613281 20.679688 20.726562 C 20.675781 20.839844 20.675781 20.945312 20.675781 21.046875 C 20.679688 21.25 20.707031 21.429688 20.753906 21.578125 C 20.800781 21.726562 20.878906 21.847656 20.957031 21.9375 C 21.035156 22.027344 21.113281 22.09375 21.167969 22.132812 C 21.195312 22.15625 21.21875 22.167969 21.234375 22.179688 C 21.25 22.191406 21.253906 22.195312 21.253906 22.195312 C 21.253906 22.195312 21.246094 22.195312 21.230469 22.191406 C 21.210938 22.1875 21.183594 22.1875 21.148438 22.179688 C 21.132812 22.175781 21.113281 22.171875 21.089844 22.164062 C 21.070312 22.160156 21.046875 22.152344 21.019531 22.144531 C 20.996094 22.136719 20.96875 22.125 20.941406 22.113281 C 20.914062 22.101562 20.882812 22.089844 20.851562 22.074219 C 20.726562 22.007812 20.585938 21.898438 20.464844 21.730469 C 20.40625 21.648438 20.351562 21.554688 20.304688 21.453125 C 20.261719 21.347656 20.222656 21.238281 20.191406 21.125 C 20.160156 21.007812 20.136719 20.886719 20.113281 20.765625 C 20.09375 20.644531 20.078125 20.515625 20.058594 20.390625 C 20.03125 20.136719 20.007812 19.875 19.972656 19.617188 C 19.941406 19.355469 19.898438 19.101562 19.824219 18.859375 C 19.757812 18.613281 19.660156 18.390625 19.527344 18.1875 L 19.476562 18.109375 C 19.460938 18.085938 19.441406 18.0625 19.425781 18.039062 C 19.40625 18.015625 19.386719 17.988281 19.367188 17.964844 C 19.347656 17.945312 19.328125 17.917969 19.308594 17.898438 L 19.28125 17.867188 L 19.246094 17.832031 L 19.175781 17.757812 C 19.121094 17.703125 19.066406 17.648438 19.015625 17.589844 C 18.804688 17.367188 18.621094 17.125 18.460938 16.882812 C 18.300781 16.636719 18.167969 16.390625 18.058594 16.148438 C 17.949219 15.90625 17.867188 15.671875 17.804688 15.453125 C 17.738281 15.230469 17.695312 15.027344 17.667969 14.84375 C 17.640625 14.660156 17.625 14.5 17.621094 14.371094 C 17.617188 14.238281 17.617188 14.132812 17.625 14.0625 C 17.628906 13.992188 17.632812 13.953125 17.632812 13.953125 " fill-opacity="1" fill-rule="nonzero"/></g><g fill="#4308b1" fill-opacity="1"><g transform="translate(41.371129, 10.343786)"><g><path d="M 1.671875 -4.046875 L 1.796875 -4.046875 L 3.296875 0 L 2.84375 0 L 2.46875 -1.03125 L 0.96875 -1.03125 L 0.609375 0 L 0.171875 0 Z M 2.328125 -1.421875 L 1.71875 -3.125 L 1.109375 -1.421875 Z M 2.328125 -1.421875 "/></g></g></g><g fill="#4308b1" fill-opacity="1"><g transform="translate(44.83894, 10.343786)"><g><path d="M 1.921875 0.0625 C 1.703125 0.0625 1.503906 0.0195312 1.328125 -0.0625 C 1.160156 -0.144531 1.015625 -0.253906 0.890625 -0.390625 C 0.765625 -0.535156 0.664062 -0.710938 0.59375 -0.921875 C 0.53125 -1.128906 0.5 -1.351562 0.5 -1.59375 L 0.5 -3.9375 L 0.90625 -3.9375 L 0.90625 -1.640625 C 0.90625 -1.441406 0.929688 -1.257812 0.984375 -1.09375 C 1.035156 -0.9375 1.101562 -0.800781 1.1875 -0.6875 C 1.28125 -0.570312 1.390625 -0.484375 1.515625 -0.421875 C 1.640625 -0.359375 1.78125 -0.328125 1.9375 -0.328125 C 2.09375 -0.328125 2.234375 -0.359375 2.359375 -0.421875 C 2.492188 -0.484375 2.601562 -0.570312 2.6875 -0.6875 C 2.78125 -0.800781 2.851562 -0.9375 2.90625 -1.09375 C 2.957031 -1.257812 2.984375 -1.441406 2.984375 -1.640625 L 2.984375 -3.9375 L 3.375 -3.9375 L 3.375 -1.59375 C 3.375 -1.351562 3.335938 -1.128906 3.265625 -0.921875 C 3.191406 -0.710938 3.085938 -0.535156 2.953125 -0.390625 C 2.828125 -0.253906 2.675781 -0.144531 2.5 -0.0625 C 2.320312 0.0195312 2.128906 0.0625 1.921875 0.0625 Z M 1.921875 0.0625 "/></g></g></g><g fill="#4308b1" fill-opacity="1"><g transform="translate(48.718187, 10.343786)"><g><path d="M 1.46875 -3.546875 L 0.171875 -3.546875 L 0.171875 -3.9375 L 3.171875 -3.9375 L 3.171875 -3.546875 L 1.875 -3.546875 L 1.875 0 L 1.46875 0 Z M 1.46875 -3.546875 "/></g></g></g><g fill="#4308b1" fill-opacity="1"><g transform="translate(52.068445, 10.343786)"><g><path d="M 2.265625 0.0625 C 1.992188 0.0625 1.738281 0.0078125 1.5 -0.09375 C 1.257812 -0.207031 1.050781 -0.351562 0.875 -0.53125 C 0.695312 -0.71875 0.554688 -0.929688 0.453125 -1.171875 C 0.347656 -1.421875 0.296875 -1.6875 0.296875 -1.96875 C 0.296875 -2.25 0.347656 -2.507812 0.453125 -2.75 C 0.554688 -3 0.695312 -3.210938 0.875 -3.390625 C 1.050781 -3.578125 1.257812 -3.722656 1.5 -3.828125 C 1.738281 -3.941406 1.992188 -4 2.265625 -4 C 2.535156 -4 2.789062 -3.941406 3.03125 -3.828125 C 3.269531 -3.722656 3.476562 -3.578125 3.65625 -3.390625 C 3.832031 -3.210938 3.972656 -3 4.078125 -2.75 C 4.179688 -2.507812 4.234375 -2.25 4.234375 -1.96875 C 4.234375 -1.6875 4.179688 -1.421875 4.078125 -1.171875 C 3.972656 -0.929688 3.832031 -0.71875 3.65625 -0.53125 C 3.476562 -0.351562 3.269531 -0.207031 3.03125 -0.09375 C 2.789062 0.0078125 2.535156 0.0625 2.265625 0.0625 Z M 2.265625 -0.34375 C 2.472656 -0.34375 2.671875 -0.382812 2.859375 -0.46875 C 3.054688 -0.550781 3.21875 -0.664062 3.34375 -0.8125 C 3.476562 -0.957031 3.585938 -1.128906 3.671875 -1.328125 C 3.753906 -1.523438 3.796875 -1.738281 3.796875 -1.96875 C 3.796875 -2.195312 3.753906 -2.410156 3.671875 -2.609375 C 3.585938 -2.804688 3.476562 -2.976562 3.34375 -3.125 C 3.21875 -3.269531 3.054688 -3.382812 2.859375 -3.46875 C 2.671875 -3.550781 2.472656 -3.59375 2.265625 -3.59375 C 2.046875 -3.59375 1.84375 -3.550781 1.65625 -3.46875 C 1.46875 -3.382812 1.304688 -3.269531 1.171875 -3.125 C 1.035156 -2.976562 0.925781 -2.804688 0.84375 -2.609375 C 0.769531 -2.410156 0.734375 -2.195312 0.734375 -1.96875 C 0.734375 -1.738281 0.769531 -1.523438 0.84375 -1.328125 C 0.925781 -1.128906 1.035156 -0.957031 1.171875 -0.8125 C 1.304688 -0.664062 1.46875 -0.550781 1.65625 -0.46875 C 1.84375 -0.382812 2.046875 -0.34375 2.265625 -0.34375 Z M 2.265625 -0.34375 "/></g></g></g></svg>