<svg xmlns="http://www.w3.org/2000/svg" xmlns:xlink="http://www.w3.org/1999/xlink" width="110" zoomAndPan="magnify" viewBox="0 0 82.5 30.000001" height="40" preserveAspectRatio="xMidYMid meet" version="1.0"><defs><g/><clipPath id="996379c9f0"><path d="M 18 3.941406 L 26 3.941406 L 26 15 L 18 15 Z M 18 3.941406 " clip-rule="nonzero"/></clipPath><clipPath id="2c7aa65982"><path d="M 21 13 L 26.0625 13 L 26.0625 17 L 21 17 Z M 21 13 " clip-rule="nonzero"/></clipPath><clipPath id="40b3599c0c"><path d="M 1.964844 3.941406 L 9 3.941406 L 9 15 L 1.964844 15 Z M 1.964844 3.941406 " clip-rule="nonzero"/></clipPath><clipPath id="3b66fe2098"><path d="M 12 23 L 16 23 L 16 25.359375 L 12 25.359375 Z M 12 23 " clip-rule="nonzero"/></clipPath></defs><g clip-path="url(#996379c9f0)"><path fill="#ffffff" d="M 19.054688 13.351562 C 19.179688 13.921875 19.777344 14.261719 20.335938 14.078125 C 20.347656 14.074219 20.355469 14.074219 20.363281 14.070312 C 20.691406 13.960938 21.078125 13.832031 21.492188 13.671875 C 21.910156 13.515625 22.355469 13.332031 22.792969 13.105469 L 22.957031 13.023438 L 23.039062 12.980469 L 23.121094 12.933594 C 23.175781 12.902344 23.230469 12.871094 23.28125 12.84375 C 23.335938 12.8125 23.390625 12.777344 23.441406 12.746094 C 23.496094 12.714844 23.546875 12.683594 23.597656 12.648438 C 23.648438 12.613281 23.703125 12.582031 23.753906 12.546875 C 23.777344 12.53125 23.800781 12.511719 23.828125 12.496094 C 23.855469 12.476562 23.878906 12.460938 23.90625 12.441406 C 23.960938 12.402344 24.007812 12.363281 24.058594 12.328125 C 24.453125 12.019531 24.769531 11.683594 25.003906 11.363281 C 25.125 11.203125 25.222656 11.050781 25.300781 10.90625 C 25.382812 10.765625 25.445312 10.636719 25.492188 10.527344 C 25.5 10.5 25.511719 10.476562 25.523438 10.449219 C 25.53125 10.425781 25.542969 10.402344 25.550781 10.382812 C 25.566406 10.339844 25.578125 10.300781 25.589844 10.269531 C 25.609375 10.210938 25.621094 10.179688 25.621094 10.179688 C 25.621094 10.179688 25.621094 10.171875 25.628906 10.152344 C 25.632812 10.136719 25.640625 10.113281 25.648438 10.082031 C 25.65625 10.050781 25.667969 10.015625 25.675781 9.96875 C 25.6875 9.921875 25.699219 9.871094 25.710938 9.8125 C 25.714844 9.78125 25.722656 9.75 25.726562 9.71875 C 25.730469 9.683594 25.734375 9.648438 25.742188 9.613281 C 25.746094 9.578125 25.75 9.539062 25.753906 9.5 C 25.753906 9.460938 25.757812 9.421875 25.757812 9.378906 C 25.765625 9.210938 25.757812 9.015625 25.722656 8.8125 C 25.714844 8.761719 25.703125 8.710938 25.691406 8.65625 C 25.679688 8.605469 25.664062 8.550781 25.648438 8.5 C 25.632812 8.445312 25.613281 8.394531 25.597656 8.339844 C 25.574219 8.289062 25.554688 8.238281 25.535156 8.1875 C 25.445312 7.980469 25.328125 7.773438 25.191406 7.582031 C 25.054688 7.390625 24.898438 7.214844 24.734375 7.046875 C 24.570312 6.878906 24.398438 6.726562 24.226562 6.582031 C 23.878906 6.289062 23.53125 6.023438 23.234375 5.753906 C 22.933594 5.484375 22.679688 5.207031 22.519531 4.9375 C 22.441406 4.800781 22.382812 4.667969 22.355469 4.546875 C 22.324219 4.421875 22.320312 4.308594 22.332031 4.21875 C 22.332031 4.207031 22.335938 4.195312 22.335938 4.183594 C 22.339844 4.175781 22.339844 4.164062 22.34375 4.152344 C 22.347656 4.132812 22.351562 4.113281 22.359375 4.097656 C 22.363281 4.078125 22.371094 4.0625 22.375 4.050781 C 22.382812 4.035156 22.386719 4.019531 22.390625 4.011719 C 22.417969 3.964844 22.429688 3.941406 22.429688 3.941406 C 22.429688 3.941406 22.410156 3.960938 22.378906 4.003906 C 22.371094 4.011719 22.363281 4.027344 22.355469 4.039062 C 22.347656 4.054688 22.335938 4.066406 22.328125 4.085938 C 22.320312 4.101562 22.3125 4.121094 22.300781 4.140625 C 22.296875 4.148438 22.292969 4.160156 22.285156 4.171875 C 22.285156 4.183594 22.28125 4.195312 22.277344 4.207031 C 22.242188 4.300781 22.222656 4.421875 22.230469 4.5625 C 22.238281 4.703125 22.269531 4.859375 22.328125 5.023438 C 22.445312 5.351562 22.660156 5.695312 22.917969 6.035156 C 23.171875 6.375 23.472656 6.710938 23.742188 7.042969 C 23.878906 7.210938 24.007812 7.378906 24.117188 7.546875 C 24.230469 7.710938 24.324219 7.878906 24.398438 8.042969 C 24.472656 8.203125 24.523438 8.359375 24.554688 8.511719 C 24.5625 8.546875 24.566406 8.585938 24.574219 8.621094 C 24.578125 8.65625 24.582031 8.691406 24.585938 8.722656 C 24.589844 8.757812 24.589844 8.789062 24.59375 8.824219 C 24.59375 8.855469 24.59375 8.886719 24.59375 8.917969 C 24.589844 9.039062 24.570312 9.148438 24.546875 9.246094 C 24.542969 9.269531 24.535156 9.292969 24.527344 9.3125 C 24.519531 9.335938 24.515625 9.355469 24.507812 9.378906 C 24.5 9.398438 24.492188 9.417969 24.488281 9.4375 C 24.480469 9.453125 24.472656 9.472656 24.464844 9.488281 C 24.453125 9.523438 24.4375 9.550781 24.425781 9.574219 C 24.417969 9.601562 24.40625 9.625 24.394531 9.640625 C 24.386719 9.65625 24.378906 9.671875 24.375 9.679688 C 24.371094 9.6875 24.367188 9.691406 24.367188 9.691406 C 24.367188 9.691406 24.359375 9.710938 24.339844 9.746094 C 24.328125 9.761719 24.316406 9.785156 24.300781 9.808594 C 24.292969 9.820312 24.285156 9.832031 24.277344 9.847656 C 24.265625 9.859375 24.257812 9.875 24.246094 9.890625 C 24.203125 9.953125 24.148438 10.023438 24.078125 10.105469 C 24.007812 10.183594 23.925781 10.273438 23.828125 10.359375 C 23.632812 10.539062 23.371094 10.726562 23.078125 10.871094 C 23.039062 10.890625 23.003906 10.910156 22.964844 10.925781 C 22.945312 10.933594 22.925781 10.941406 22.90625 10.953125 C 22.886719 10.960938 22.863281 10.96875 22.84375 10.976562 C 22.800781 10.996094 22.757812 11.015625 22.714844 11.03125 C 22.671875 11.050781 22.628906 11.066406 22.582031 11.082031 C 22.539062 11.097656 22.496094 11.117188 22.449219 11.132812 C 22.402344 11.148438 22.359375 11.160156 22.3125 11.175781 L 22.171875 11.222656 L 22.03125 11.265625 C 21.269531 11.480469 20.441406 11.601562 19.800781 11.683594 C 19.800781 11.683594 19.796875 11.6875 19.792969 11.6875 C 19.214844 11.761719 18.828125 12.304688 18.949219 12.867188 L 19.054688 13.351562 " fill-opacity="1" fill-rule="nonzero"/></g><g clip-path="url(#2c7aa65982)"><path fill="#ffffff" d="M 23.488281 14.226562 C 21.824219 13.136719 21.164062 14.417969 21.164062 14.417969 C 23.246094 18.496094 26.054688 15.199219 26.054688 15.199219 C 26.054688 15.199219 25.152344 15.316406 23.488281 14.226562 " fill-opacity="1" fill-rule="nonzero"/></g><g clip-path="url(#40b3599c0c)"><path fill="#ffffff" d="M 8.683594 13.351562 C 8.558594 13.921875 7.960938 14.261719 7.398438 14.078125 C 7.390625 14.074219 7.382812 14.074219 7.375 14.070312 C 7.046875 13.960938 6.660156 13.832031 6.242188 13.671875 C 5.828125 13.515625 5.382812 13.332031 4.945312 13.105469 L 4.777344 13.023438 L 4.699219 12.980469 L 4.617188 12.933594 C 4.5625 12.902344 4.507812 12.871094 4.453125 12.84375 C 4.402344 12.8125 4.347656 12.777344 4.296875 12.746094 C 4.242188 12.714844 4.191406 12.683594 4.140625 12.648438 C 4.085938 12.613281 4.035156 12.582031 3.984375 12.546875 C 3.960938 12.53125 3.933594 12.511719 3.910156 12.496094 C 3.882812 12.476562 3.859375 12.460938 3.832031 12.441406 C 3.777344 12.402344 3.730469 12.363281 3.679688 12.328125 C 3.285156 12.019531 2.96875 11.683594 2.730469 11.363281 C 2.613281 11.203125 2.515625 11.050781 2.4375 10.90625 C 2.355469 10.765625 2.292969 10.636719 2.246094 10.527344 C 2.234375 10.5 2.226562 10.476562 2.214844 10.449219 C 2.207031 10.425781 2.195312 10.402344 2.1875 10.382812 C 2.171875 10.339844 2.15625 10.300781 2.148438 10.269531 C 2.128906 10.210938 2.117188 10.179688 2.117188 10.179688 C 2.117188 10.179688 2.113281 10.171875 2.109375 10.152344 C 2.105469 10.136719 2.097656 10.113281 2.089844 10.082031 C 2.082031 10.050781 2.070312 10.015625 2.058594 9.96875 C 2.050781 9.921875 2.035156 9.871094 2.027344 9.8125 C 2.023438 9.78125 2.015625 9.75 2.011719 9.71875 C 2.007812 9.683594 2 9.648438 1.996094 9.613281 C 1.992188 9.578125 1.988281 9.539062 1.984375 9.5 C 1.984375 9.460938 1.980469 9.421875 1.976562 9.378906 C 1.972656 9.210938 1.980469 9.015625 2.015625 8.8125 C 2.023438 8.761719 2.035156 8.710938 2.046875 8.65625 C 2.058594 8.605469 2.074219 8.550781 2.089844 8.5 C 2.105469 8.445312 2.125 8.394531 2.140625 8.339844 C 2.164062 8.289062 2.183594 8.238281 2.203125 8.1875 C 2.292969 7.980469 2.410156 7.773438 2.546875 7.582031 C 2.683594 7.390625 2.839844 7.214844 3.003906 7.046875 C 3.167969 6.878906 3.339844 6.726562 3.511719 6.582031 C 3.859375 6.289062 4.207031 6.023438 4.503906 5.753906 C 4.804688 5.484375 5.058594 5.207031 5.21875 4.9375 C 5.296875 4.800781 5.351562 4.667969 5.382812 4.546875 C 5.414062 4.421875 5.417969 4.308594 5.40625 4.21875 C 5.40625 4.207031 5.402344 4.195312 5.402344 4.183594 C 5.398438 4.175781 5.394531 4.164062 5.394531 4.152344 C 5.390625 4.132812 5.386719 4.113281 5.378906 4.097656 C 5.371094 4.078125 5.367188 4.0625 5.363281 4.050781 C 5.355469 4.035156 5.351562 4.019531 5.34375 4.011719 C 5.320312 3.964844 5.308594 3.941406 5.308594 3.941406 C 5.308594 3.941406 5.324219 3.960938 5.359375 4.003906 C 5.367188 4.011719 5.375 4.027344 5.382812 4.039062 C 5.390625 4.054688 5.398438 4.066406 5.410156 4.085938 C 5.417969 4.101562 5.425781 4.121094 5.4375 4.140625 C 5.441406 4.148438 5.445312 4.160156 5.449219 4.171875 C 5.453125 4.183594 5.457031 4.195312 5.460938 4.207031 C 5.496094 4.300781 5.515625 4.421875 5.507812 4.5625 C 5.5 4.703125 5.464844 4.859375 5.40625 5.023438 C 5.289062 5.351562 5.078125 5.695312 4.820312 6.035156 C 4.566406 6.375 4.265625 6.710938 3.996094 7.042969 C 3.859375 7.210938 3.730469 7.378906 3.621094 7.546875 C 3.507812 7.710938 3.410156 7.878906 3.339844 8.042969 C 3.265625 8.203125 3.214844 8.359375 3.183594 8.511719 C 3.175781 8.546875 3.167969 8.585938 3.164062 8.621094 C 3.15625 8.65625 3.152344 8.691406 3.148438 8.722656 C 3.148438 8.757812 3.144531 8.789062 3.144531 8.824219 C 3.144531 8.855469 3.144531 8.886719 3.144531 8.917969 C 3.148438 9.039062 3.167969 9.148438 3.191406 9.246094 C 3.195312 9.269531 3.203125 9.292969 3.210938 9.3125 C 3.214844 9.335938 3.222656 9.355469 3.230469 9.378906 C 3.238281 9.398438 3.242188 9.417969 3.25 9.4375 C 3.257812 9.453125 3.265625 9.472656 3.273438 9.488281 C 3.285156 9.523438 3.296875 9.550781 3.308594 9.574219 C 3.320312 9.601562 3.332031 9.625 3.339844 9.640625 C 3.351562 9.65625 3.355469 9.671875 3.363281 9.679688 C 3.367188 9.6875 3.371094 9.691406 3.371094 9.691406 C 3.371094 9.691406 3.378906 9.710938 3.398438 9.746094 C 3.410156 9.761719 3.421875 9.785156 3.4375 9.808594 C 3.445312 9.820312 3.453125 9.832031 3.460938 9.847656 C 3.472656 9.859375 3.480469 9.875 3.492188 9.890625 C 3.535156 9.953125 3.589844 10.023438 3.660156 10.105469 C 3.726562 10.183594 3.8125 10.273438 3.910156 10.359375 C 4.105469 10.539062 4.367188 10.726562 4.660156 10.871094 C 4.699219 10.890625 4.734375 10.910156 4.773438 10.925781 C 4.792969 10.933594 4.8125 10.941406 4.832031 10.953125 C 4.851562 10.960938 4.871094 10.96875 4.894531 10.976562 C 4.9375 10.996094 4.980469 11.015625 5.023438 11.03125 C 5.0625 11.050781 5.109375 11.066406 5.152344 11.082031 C 5.199219 11.097656 5.242188 11.117188 5.289062 11.132812 C 5.335938 11.148438 5.378906 11.160156 5.425781 11.175781 L 5.566406 11.222656 L 5.707031 11.265625 C 6.46875 11.480469 7.296875 11.601562 7.933594 11.683594 C 7.9375 11.683594 7.941406 11.6875 7.945312 11.6875 C 8.519531 11.761719 8.910156 12.304688 8.789062 12.867188 L 8.683594 13.351562 " fill-opacity="1" fill-rule="nonzero"/></g><path fill="#ffffff" d="M 4.871094 14.226562 C 6.535156 13.136719 7.195312 14.417969 7.195312 14.417969 C 5.113281 18.496094 2.304688 15.199219 2.304688 15.199219 C 2.304688 15.199219 3.207031 15.316406 4.871094 14.226562 " fill-opacity="1" fill-rule="nonzero"/><path fill="#ffffff" d="M 20.207031 15.121094 C 20.207031 15.121094 20.210938 15.167969 20.21875 15.25 C 20.222656 15.332031 20.226562 15.453125 20.21875 15.609375 C 20.214844 15.765625 20.199219 15.953125 20.164062 16.167969 C 20.128906 16.382812 20.078125 16.625 20.003906 16.882812 C 19.929688 17.140625 19.828125 17.417969 19.699219 17.699219 C 19.570312 17.984375 19.410156 18.273438 19.222656 18.5625 C 19.03125 18.847656 18.8125 19.128906 18.5625 19.394531 C 18.503906 19.460938 18.433594 19.523438 18.371094 19.589844 L 18.25 19.710938 L 18.242188 19.722656 L 18.210938 19.757812 C 18.1875 19.777344 18.164062 19.808594 18.140625 19.835938 C 18.117188 19.863281 18.097656 19.890625 18.074219 19.917969 C 18.050781 19.945312 18.03125 19.976562 18.011719 20.003906 L 17.949219 20.09375 C 17.796875 20.332031 17.679688 20.597656 17.597656 20.882812 C 17.511719 21.167969 17.460938 21.46875 17.421875 21.773438 C 17.378906 22.078125 17.355469 22.382812 17.316406 22.683594 C 17.296875 22.832031 17.28125 22.980469 17.253906 23.125 C 17.226562 23.265625 17.199219 23.410156 17.160156 23.542969 C 17.125 23.679688 17.078125 23.808594 17.023438 23.929688 C 16.96875 24.050781 16.90625 24.164062 16.835938 24.257812 C 16.691406 24.453125 16.523438 24.585938 16.375 24.660156 C 16.339844 24.679688 16.304688 24.691406 16.269531 24.707031 C 16.234375 24.722656 16.203125 24.734375 16.175781 24.742188 C 16.144531 24.753906 16.117188 24.761719 16.089844 24.769531 C 16.066406 24.773438 16.042969 24.777344 16.023438 24.78125 C 15.980469 24.792969 15.949219 24.796875 15.925781 24.796875 C 15.90625 24.800781 15.894531 24.804688 15.894531 24.804688 C 15.894531 24.804688 15.902344 24.796875 15.921875 24.785156 C 15.9375 24.773438 15.964844 24.753906 16 24.730469 C 16.0625 24.683594 16.15625 24.609375 16.25 24.5 C 16.34375 24.394531 16.433594 24.253906 16.492188 24.078125 C 16.550781 23.902344 16.578125 23.691406 16.582031 23.453125 C 16.585938 23.335938 16.585938 23.210938 16.578125 23.078125 C 16.574219 22.941406 16.566406 22.804688 16.558594 22.660156 C 16.539062 22.367188 16.519531 22.050781 16.523438 21.710938 C 16.53125 21.375 16.558594 21.011719 16.644531 20.640625 C 16.730469 20.269531 16.878906 19.894531 17.101562 19.554688 C 17.128906 19.511719 17.160156 19.46875 17.1875 19.429688 C 17.21875 19.386719 17.246094 19.347656 17.277344 19.308594 C 17.3125 19.269531 17.34375 19.230469 17.375 19.191406 C 17.410156 19.15625 17.441406 19.117188 17.480469 19.078125 L 17.539062 19.023438 L 17.550781 19.007812 L 17.585938 18.972656 L 17.683594 18.882812 C 17.742188 18.828125 17.804688 18.773438 17.859375 18.71875 C 18.089844 18.5 18.304688 18.269531 18.5 18.039062 C 18.695312 17.804688 18.875 17.570312 19.035156 17.335938 C 19.199219 17.105469 19.339844 16.875 19.464844 16.660156 C 19.59375 16.445312 19.699219 16.238281 19.792969 16.054688 C 19.886719 15.867188 19.960938 15.703125 20.023438 15.566406 C 20.144531 15.289062 20.207031 15.121094 20.207031 15.121094 " fill-opacity="1" fill-rule="nonzero"/><path fill="#ffffff" d="M 7.53125 15.121094 C 7.53125 15.121094 7.59375 15.289062 7.714844 15.566406 C 7.777344 15.703125 7.851562 15.867188 7.945312 16.054688 C 8.035156 16.238281 8.144531 16.445312 8.273438 16.660156 C 8.398438 16.875 8.539062 17.105469 8.699219 17.335938 C 8.863281 17.570312 9.042969 17.804688 9.238281 18.039062 C 9.433594 18.269531 9.648438 18.5 9.878906 18.71875 C 9.933594 18.773438 9.992188 18.828125 10.050781 18.882812 L 10.152344 18.972656 L 10.1875 19.007812 L 10.199219 19.023438 L 10.257812 19.078125 C 10.296875 19.117188 10.328125 19.15625 10.359375 19.191406 C 10.394531 19.230469 10.425781 19.269531 10.457031 19.308594 C 10.488281 19.347656 10.519531 19.386719 10.550781 19.429688 C 10.578125 19.46875 10.609375 19.511719 10.636719 19.554688 C 10.855469 19.894531 11.007812 20.269531 11.09375 20.640625 C 11.179688 21.011719 11.207031 21.375 11.210938 21.710938 C 11.214844 22.050781 11.199219 22.367188 11.179688 22.660156 C 11.171875 22.804688 11.164062 22.941406 11.160156 23.078125 C 11.152344 23.210938 11.152344 23.335938 11.152344 23.453125 C 11.160156 23.691406 11.1875 23.902344 11.246094 24.078125 C 11.304688 24.253906 11.390625 24.394531 11.488281 24.5 C 11.578125 24.609375 11.675781 24.683594 11.738281 24.730469 C 11.773438 24.753906 11.800781 24.773438 11.816406 24.785156 C 11.835938 24.796875 11.84375 24.804688 11.84375 24.804688 C 11.84375 24.804688 11.832031 24.800781 11.8125 24.796875 C 11.789062 24.796875 11.757812 24.792969 11.714844 24.78125 C 11.695312 24.777344 11.671875 24.773438 11.644531 24.769531 C 11.621094 24.761719 11.59375 24.753906 11.5625 24.742188 C 11.535156 24.734375 11.5 24.722656 11.46875 24.707031 C 11.433594 24.691406 11.398438 24.679688 11.363281 24.660156 C 11.214844 24.585938 11.042969 24.453125 10.902344 24.257812 C 10.832031 24.164062 10.769531 24.050781 10.714844 23.929688 C 10.65625 23.808594 10.613281 23.679688 10.574219 23.542969 C 10.539062 23.410156 10.511719 23.265625 10.484375 23.125 C 10.457031 22.980469 10.441406 22.832031 10.421875 22.683594 C 10.382812 22.382812 10.355469 22.078125 10.316406 21.773438 C 10.277344 21.46875 10.226562 21.167969 10.140625 20.882812 C 10.058594 20.597656 9.941406 20.332031 9.785156 20.09375 L 9.726562 20.003906 C 9.707031 19.976562 9.683594 19.945312 9.664062 19.917969 C 9.640625 19.890625 9.621094 19.863281 9.597656 19.835938 C 9.574219 19.808594 9.546875 19.777344 9.527344 19.757812 L 9.496094 19.722656 L 9.484375 19.710938 L 9.476562 19.699219 L 9.367188 19.589844 C 9.300781 19.523438 9.234375 19.460938 9.175781 19.394531 C 8.925781 19.128906 8.707031 18.847656 8.515625 18.5625 C 8.328125 18.273438 8.167969 17.984375 8.039062 17.699219 C 7.910156 17.417969 7.808594 17.140625 7.734375 16.882812 C 7.660156 16.625 7.605469 16.382812 7.574219 16.167969 C 7.539062 15.953125 7.523438 15.765625 7.519531 15.609375 C 7.511719 15.453125 7.515625 15.332031 7.519531 15.25 C 7.523438 15.167969 7.53125 15.121094 7.53125 15.121094 " fill-opacity="1" fill-rule="nonzero"/><g clip-path="url(#3b66fe2098)"><path fill="#ffffff" d="M 15.394531 23.925781 C 15.03125 24.1875 14.484375 24.390625 13.867188 24.390625 C 13.253906 24.390625 12.703125 24.1875 12.34375 23.925781 C 12.160156 24.046875 12.054688 24.1875 12.054688 24.34375 C 12.054688 24.769531 12.867188 25.359375 13.867188 25.359375 C 14.871094 25.359375 15.683594 24.769531 15.683594 24.34375 C 15.683594 24.1875 15.578125 24.046875 15.394531 23.925781 " fill-opacity="1" fill-rule="nonzero"/></g><g fill="#ffffff" fill-opacity="1"><g transform="translate(28.87896, 25.440421)"><g><path d="M 1.296875 -12.4375 L 5.140625 -12.4375 C 5.796875 -12.4375 6.398438 -12.347656 6.953125 -12.171875 C 7.503906 -11.992188 7.976562 -11.742188 8.375 -11.421875 C 8.78125 -11.109375 9.09375 -10.738281 9.3125 -10.3125 C 9.539062 -9.882812 9.65625 -9.414062 9.65625 -8.90625 C 9.65625 -8.382812 9.539062 -7.914062 9.3125 -7.5 C 9.082031 -7.09375 8.769531 -6.734375 8.375 -6.421875 C 8.894531 -6.109375 9.300781 -5.710938 9.59375 -5.234375 C 9.882812 -4.753906 10.03125 -4.21875 10.03125 -3.625 C 10.03125 -3.101562 9.914062 -2.617188 9.6875 -2.171875 C 9.46875 -1.734375 9.15625 -1.347656 8.75 -1.015625 C 8.351562 -0.691406 7.878906 -0.441406 7.328125 -0.265625 C 6.773438 -0.0859375 6.171875 0 5.515625 0 L 1.296875 0 Z M 5.328125 -2.40625 C 5.816406 -2.40625 6.195312 -2.53125 6.46875 -2.78125 C 6.738281 -3.03125 6.875 -3.359375 6.875 -3.765625 C 6.875 -4.171875 6.742188 -4.503906 6.484375 -4.765625 C 6.222656 -5.023438 5.835938 -5.15625 5.328125 -5.15625 L 4.453125 -5.15625 L 4.453125 -2.40625 Z M 5.140625 -7.46875 C 5.546875 -7.46875 5.875 -7.585938 6.125 -7.828125 C 6.375 -8.066406 6.5 -8.382812 6.5 -8.78125 C 6.5 -9.164062 6.375 -9.46875 6.125 -9.6875 C 5.875 -9.914062 5.546875 -10.03125 5.140625 -10.03125 L 4.453125 -10.03125 L 4.453125 -7.46875 Z M 5.140625 -7.46875 "/></g></g></g><g fill="#ffffff" fill-opacity="1"><g transform="translate(39.554253, 25.440421)"><g><path d="M 6.40625 0.28125 C 5.644531 0.28125 4.945312 0.148438 4.3125 -0.109375 C 3.675781 -0.367188 3.128906 -0.734375 2.671875 -1.203125 C 2.210938 -1.671875 1.851562 -2.226562 1.59375 -2.875 C 1.332031 -3.519531 1.203125 -4.226562 1.203125 -5 L 1.203125 -12.4375 L 4.359375 -12.4375 L 4.359375 -5 C 4.359375 -4.300781 4.546875 -3.738281 4.921875 -3.3125 C 5.304688 -2.894531 5.8125 -2.6875 6.4375 -2.6875 C 7.0625 -2.6875 7.5625 -2.894531 7.9375 -3.3125 C 8.320312 -3.738281 8.515625 -4.300781 8.515625 -5 L 8.515625 -12.4375 L 11.609375 -12.4375 L 11.609375 -5 C 11.609375 -4.226562 11.476562 -3.519531 11.21875 -2.875 C 10.957031 -2.226562 10.597656 -1.671875 10.140625 -1.203125 C 9.679688 -0.734375 9.128906 -0.367188 8.484375 -0.109375 C 7.847656 0.148438 7.15625 0.28125 6.40625 0.28125 Z M 6.40625 0.28125 "/></g></g></g><g fill="#ffffff" fill-opacity="1"><g transform="translate(52.364606, 25.440421)"><g><path d="M 1.296875 -12.4375 L 4.453125 -12.4375 L 4.453125 -2.96875 L 8.53125 -2.96875 L 8.53125 0 L 1.296875 0 Z M 1.296875 -12.4375 "/></g></g></g><g fill="#ffffff" fill-opacity="1"><g transform="translate(61.461814, 25.440421)"><g><path d="M 1.296875 -12.4375 L 4.453125 -12.4375 L 4.453125 -2.96875 L 8.53125 -2.96875 L 8.53125 0 L 1.296875 0 Z M 1.296875 -12.4375 "/></g></g></g><g fill="#ffffff" fill-opacity="1"><g transform="translate(70.559023, 25.440421)"><g><path d="M 4.84375 0.375 C 3.84375 0.375 2.945312 0.148438 2.15625 -0.296875 C 1.375 -0.753906 0.75 -1.410156 0.28125 -2.265625 L 2.40625 -4.03125 C 2.695312 -3.46875 3.039062 -3.046875 3.4375 -2.765625 C 3.832031 -2.484375 4.273438 -2.34375 4.765625 -2.34375 C 5.160156 -2.34375 5.476562 -2.429688 5.71875 -2.609375 C 5.96875 -2.785156 6.09375 -3.015625 6.09375 -3.296875 C 6.09375 -3.441406 6.0625 -3.570312 6 -3.6875 C 5.9375 -3.800781 5.835938 -3.914062 5.703125 -4.03125 C 5.566406 -4.15625 5.375 -4.273438 5.125 -4.390625 C 4.882812 -4.515625 4.59375 -4.664062 4.25 -4.84375 C 3.113281 -5.375 2.285156 -5.953125 1.765625 -6.578125 C 1.253906 -7.210938 1 -7.972656 1 -8.859375 C 1 -9.441406 1.101562 -9.96875 1.3125 -10.4375 C 1.53125 -10.914062 1.828125 -11.320312 2.203125 -11.65625 C 2.578125 -11.988281 3.023438 -12.25 3.546875 -12.4375 C 4.078125 -12.625 4.648438 -12.71875 5.265625 -12.71875 C 6.085938 -12.71875 6.832031 -12.546875 7.5 -12.203125 C 8.164062 -11.859375 8.789062 -11.335938 9.375 -10.640625 L 7.34375 -8.78125 C 7 -9.25 6.664062 -9.585938 6.34375 -9.796875 C 6.019531 -10.003906 5.671875 -10.109375 5.296875 -10.109375 C 4.929688 -10.109375 4.648438 -10.03125 4.453125 -9.875 C 4.253906 -9.726562 4.15625 -9.507812 4.15625 -9.21875 C 4.15625 -8.851562 4.320312 -8.5625 4.65625 -8.34375 C 4.988281 -8.125 5.4375 -7.890625 6 -7.640625 C 7.144531 -7.128906 7.976562 -6.546875 8.5 -5.890625 C 9.03125 -5.242188 9.296875 -4.472656 9.296875 -3.578125 C 9.296875 -2.984375 9.1875 -2.445312 8.96875 -1.96875 C 8.757812 -1.488281 8.457031 -1.070312 8.0625 -0.71875 C 7.664062 -0.375 7.191406 -0.109375 6.640625 0.078125 C 6.097656 0.273438 5.5 0.375 4.84375 0.375 Z M 4.84375 0.375 "/></g></g></g><g fill="#ffffff" fill-opacity="1"><g transform="translate(29.711447, 9.111382)"><g><path d="M 0.703125 -5.265625 L 1.25 -5.265625 L 1.25 -0.515625 L 3.375 -0.515625 L 3.375 0 L 0.703125 0 Z M 0.703125 -5.265625 "/></g></g></g><g fill="#ffffff" fill-opacity="1"><g transform="translate(33.443962, 9.111382)"><g><path d="M 2.234375 -5.421875 L 2.390625 -5.421875 L 4.40625 0 L 3.796875 0 L 3.296875 -1.390625 L 1.296875 -1.390625 L 0.8125 0 L 0.234375 0 Z M 3.125 -1.890625 L 2.296875 -4.171875 L 1.484375 -1.890625 Z M 3.125 -1.890625 "/></g></g></g><g fill="#ffffff" fill-opacity="1"><g transform="translate(38.080138, 9.111382)"><g><path d="M 3 0.078125 C 2.632812 0.078125 2.296875 0.0078125 1.984375 -0.125 C 1.671875 -0.269531 1.394531 -0.460938 1.15625 -0.703125 C 0.914062 -0.941406 0.726562 -1.222656 0.59375 -1.546875 C 0.457031 -1.878906 0.390625 -2.234375 0.390625 -2.609375 C 0.390625 -2.984375 0.457031 -3.335938 0.59375 -3.671875 C 0.738281 -4.003906 0.929688 -4.296875 1.171875 -4.546875 C 1.410156 -4.796875 1.6875 -4.988281 2 -5.125 C 2.320312 -5.269531 2.664062 -5.34375 3.03125 -5.34375 C 3.414062 -5.34375 3.78125 -5.257812 4.125 -5.09375 C 4.46875 -4.925781 4.757812 -4.703125 5 -4.421875 L 4.59375 -4.078125 C 4.382812 -4.304688 4.144531 -4.484375 3.875 -4.609375 C 3.601562 -4.734375 3.316406 -4.796875 3.015625 -4.796875 C 2.722656 -4.796875 2.453125 -4.738281 2.203125 -4.625 C 1.960938 -4.519531 1.75 -4.367188 1.5625 -4.171875 C 1.375 -3.984375 1.226562 -3.753906 1.125 -3.484375 C 1.03125 -3.222656 0.984375 -2.941406 0.984375 -2.640625 C 0.984375 -2.328125 1.03125 -2.035156 1.125 -1.765625 C 1.226562 -1.503906 1.375 -1.273438 1.5625 -1.078125 C 1.75 -0.890625 1.96875 -0.738281 2.21875 -0.625 C 2.46875 -0.519531 2.738281 -0.46875 3.03125 -0.46875 C 3.363281 -0.46875 3.664062 -0.53125 3.9375 -0.65625 C 4.207031 -0.789062 4.429688 -0.96875 4.609375 -1.1875 L 4.609375 -2.3125 L 3.03125 -2.3125 L 3.03125 -2.828125 L 5.15625 -2.828125 L 5.15625 -1.078125 C 4.90625 -0.710938 4.59375 -0.425781 4.21875 -0.21875 C 3.84375 -0.0195312 3.4375 0.078125 3 0.078125 Z M 3 0.078125 "/></g></g></g><g fill="#ffffff" fill-opacity="1"><g transform="translate(43.75356, 9.111382)"><g><path d="M 2.5625 0.078125 C 2.28125 0.078125 2.019531 0.0234375 1.78125 -0.078125 C 1.550781 -0.191406 1.351562 -0.34375 1.1875 -0.53125 C 1.019531 -0.726562 0.890625 -0.960938 0.796875 -1.234375 C 0.710938 -1.503906 0.671875 -1.804688 0.671875 -2.140625 L 0.671875 -5.265625 L 1.21875 -5.265625 L 1.21875 -2.1875 C 1.21875 -1.925781 1.25 -1.6875 1.3125 -1.46875 C 1.382812 -1.25 1.476562 -1.0625 1.59375 -0.90625 C 1.71875 -0.757812 1.863281 -0.644531 2.03125 -0.5625 C 2.195312 -0.476562 2.382812 -0.4375 2.59375 -0.4375 C 2.8125 -0.4375 3.003906 -0.476562 3.171875 -0.5625 C 3.335938 -0.644531 3.476562 -0.757812 3.59375 -0.90625 C 3.71875 -1.0625 3.8125 -1.25 3.875 -1.46875 C 3.945312 -1.6875 3.984375 -1.925781 3.984375 -2.1875 L 3.984375 -5.265625 L 4.515625 -5.265625 L 4.515625 -2.140625 C 4.515625 -1.804688 4.46875 -1.503906 4.375 -1.234375 C 4.28125 -0.960938 4.144531 -0.726562 3.96875 -0.53125 C 3.789062 -0.34375 3.582031 -0.191406 3.34375 -0.078125 C 3.101562 0.0234375 2.84375 0.078125 2.5625 0.078125 Z M 2.5625 0.078125 "/></g></g></g><g fill="#ffffff" fill-opacity="1"><g transform="translate(48.939792, 9.111382)"><g><path d="M 1.234375 -4.09375 L 1.234375 0 L 0.703125 0 L 0.703125 -5.421875 L 0.859375 -5.421875 L 4.421875 -1.171875 L 4.421875 -5.265625 L 4.953125 -5.265625 L 4.953125 0.15625 L 4.796875 0.15625 Z M 1.234375 -4.09375 "/></g></g></g><g fill="#ffffff" fill-opacity="1"><g transform="translate(54.597498, 9.111382)"><g><path d="M 2.234375 -5.421875 L 2.390625 -5.421875 L 4.40625 0 L 3.796875 0 L 3.296875 -1.390625 L 1.296875 -1.390625 L 0.8125 0 L 0.234375 0 Z M 3.125 -1.890625 L 2.296875 -4.171875 L 1.484375 -1.890625 Z M 3.125 -1.890625 "/></g></g></g></svg>