<svg xmlns="http://www.w3.org/2000/svg" xmlns:xlink="http://www.w3.org/1999/xlink" width="1920" zoomAndPan="magnify" viewBox="0 0 1440 74.999997" height="100" preserveAspectRatio="xMidYMid meet" version="1.0"><defs><g/><clipPath id="c2e1d16d8f"><path d="M 848.390625 12.933594 L 893 12.933594 L 893 51 L 848.390625 51 Z M 848.390625 12.933594 " clip-rule="nonzero"/></clipPath></defs><rect x="-144" width="1728" fill="#ffffff" y="-7.5" height="89.999996" fill-opacity="1"/><rect x="-144" width="1728" fill="#ffffff" y="-7.5" height="89.999996" fill-opacity="1"/><rect x="-144" width="1728" fill="#4308b1" y="-7.5" height="89.999996" fill-opacity="1"/><path fill="#fbbe00" d="M 309.441406 0.0507812 L -6.613281 0.546875 C -9.769531 4.003906 -10.191406 9.65625 -7.578125 13.539062 C -4.964844 17.425781 0.429688 19.167969 4.820312 17.542969 C 8.777344 16.082031 11.644531 12.335938 15.71875 11.226562 C 22.800781 9.289062 29.410156 16.324219 31.257812 23.433594 C 33.101562 30.539062 32.15625 38.175781 34.242188 45.21875 C 38.363281 59.128906 55.609375 67.453125 69.0625 62.023438 C 78.148438 58.351562 85.648438 49.507812 95.433594 50.023438 C 100.421875 50.285156 104.878906 53.015625 109.433594 55.066406 C 113.988281 57.113281 119.460938 58.472656 123.835938 56.0625 C 131.535156 51.824219 129.941406 40.339844 133.859375 32.472656 C 137.796875 24.570312 148.542969 20.9375 156.46875 24.828125 C 160.101562 26.613281 163.78125 29.804688 167.640625 28.574219 C 169.695312 27.917969 171.183594 26.105469 173.15625 25.222656 C 178.339844 22.902344 183.78125 27.660156 187.421875 32.019531 C 191.0625 36.378906 196.273438 41.277344 201.582031 39.257812 C 205.6875 37.695312 207.660156 32.488281 211.886719 31.28125 C 216.078125 30.085938 220.308594 33.5625 222.152344 37.515625 C 224 41.46875 224.351562 45.96875 226.007812 50.003906 C 229 57.292969 236.488281 62.511719 244.367188 62.789062 C 252.242188 63.0625 260.078125 58.386719 263.574219 51.324219 C 266.03125 46.363281 266.394531 40.660156 267.914062 35.335938 C 269.433594 30.011719 272.765625 24.535156 278.15625 23.285156 C 283.667969 22.007812 289.117188 25.5625 294.765625 25.929688 C 304.699219 26.574219 313.050781 9.335938 309.441406 0.0507812 Z M 34.921875 17.527344 C 33.992188 12.578125 29.566406 8.515625 24.578125 7.910156 C 23.664062 7.796875 23.65625 6.351562 24.578125 6.464844 C 30.175781 7.144531 35.257812 11.511719 36.316406 17.144531 C 36.484375 18.054688 35.09375 18.441406 34.921875 17.527344 Z M 36.582031 25.125 C 36.265625 25.308594 35.757812 25.21875 35.589844 24.867188 C 35.222656 24.082031 35.195312 23.269531 35.195312 22.414062 C 35.195312 21.480469 36.640625 21.484375 36.640625 22.414062 C 36.640625 22.976562 36.589844 23.613281 36.839844 24.136719 C 37.003906 24.492188 36.941406 24.914062 36.582031 25.125 Z M 107.328125 48 C 100.203125 42.429688 89.125 42.738281 82.085938 48.296875 C 81.367188 48.867188 80.335938 47.851562 81.066406 47.277344 C 82.78125 45.921875 84.660156 44.847656 86.703125 44.058594 C 93.789062 41.332031 102.320312 42.265625 108.351562 46.976562 C 109.082031 47.550781 108.054688 48.5625 107.328125 48 Z M 223.574219 30.910156 C 221.964844 29.035156 219.957031 27.507812 217.640625 26.613281 C 215.261719 25.695312 212.734375 25.644531 210.265625 26.238281 C 209.046875 26.53125 207.875 26.976562 206.773438 27.574219 C 205.644531 28.1875 204.683594 29.011719 203.652344 29.769531 C 201.796875 31.128906 199.527344 31.683594 197.457031 30.402344 C 196.667969 29.910156 197.394531 28.664062 198.1875 29.15625 C 200.722656 30.722656 202.804688 28.511719 204.765625 27.117188 C 206.785156 25.679688 209.234375 24.832031 211.679688 24.523438 C 214.207031 24.207031 216.582031 24.550781 218.902344 25.585938 C 221.097656 26.566406 223.03125 28.070312 224.59375 29.886719 C 225.199219 30.589844 224.183594 31.613281 223.574219 30.910156 Z M 283.722656 19.105469 C 281.265625 17.9375 278.488281 18.503906 276.078125 19.492188 C 268.683594 22.519531 263.558594 29.886719 263.359375 37.886719 C 263.332031 38.816406 261.890625 38.816406 261.914062 37.886719 C 261.976562 35.390625 262.46875 32.910156 263.386719 30.585938 C 264.976562 26.546875 267.691406 23.015625 271.230469 20.496094 C 274.894531 17.882812 280.09375 15.785156 284.453125 17.855469 C 285.292969 18.257812 284.558594 19.5 283.722656 19.105469 Z M 283.722656 19.105469 " fill-opacity="1" fill-rule="nonzero"/><path fill="#fbbe00" d="M 1446.441406 0.0507812 L 1130.382812 0.546875 C 1127.226562 4.003906 1126.808594 9.65625 1129.421875 13.539062 C 1132.035156 17.425781 1137.425781 19.167969 1141.816406 17.542969 C 1145.777344 16.082031 1148.644531 12.335938 1152.714844 11.226562 C 1159.796875 9.289062 1166.410156 16.324219 1168.257812 23.433594 C 1170.101562 30.539062 1169.15625 38.175781 1171.242188 45.21875 C 1175.363281 59.128906 1192.605469 67.453125 1206.0625 62.023438 C 1215.148438 58.351562 1222.644531 49.507812 1232.433594 50.023438 C 1237.421875 50.285156 1241.878906 53.015625 1246.433594 55.066406 C 1250.988281 57.113281 1256.460938 58.472656 1260.835938 56.0625 C 1268.53125 51.824219 1266.941406 40.339844 1270.859375 32.472656 C 1274.796875 24.570312 1285.542969 20.9375 1293.46875 24.828125 C 1297.101562 26.613281 1300.78125 29.804688 1304.636719 28.574219 C 1306.695312 27.917969 1308.183594 26.105469 1310.15625 25.222656 C 1315.335938 22.902344 1320.78125 27.660156 1324.421875 32.019531 C 1328.0625 36.378906 1333.273438 41.277344 1338.582031 39.257812 C 1342.6875 37.695312 1344.660156 32.488281 1348.886719 31.28125 C 1353.078125 30.085938 1357.304688 33.5625 1359.152344 37.515625 C 1360.996094 41.46875 1361.351562 45.96875 1363.007812 50.003906 C 1366 57.292969 1373.488281 62.511719 1381.363281 62.789062 C 1389.242188 63.0625 1397.078125 58.386719 1400.574219 51.324219 C 1403.03125 46.363281 1403.390625 40.660156 1404.910156 35.335938 C 1406.429688 30.011719 1409.761719 24.535156 1415.152344 23.285156 C 1420.664062 22.007812 1426.117188 25.5625 1431.761719 25.929688 C 1441.699219 26.574219 1450.050781 9.335938 1446.441406 0.0507812 Z M 1171.921875 17.527344 C 1170.992188 12.578125 1166.566406 8.515625 1161.574219 7.910156 C 1160.664062 7.796875 1160.65625 6.351562 1161.574219 6.464844 C 1167.175781 7.144531 1172.257812 11.511719 1173.3125 17.144531 C 1173.484375 18.054688 1172.09375 18.441406 1171.921875 17.527344 Z M 1173.578125 25.125 C 1173.265625 25.308594 1172.757812 25.21875 1172.589844 24.867188 C 1172.21875 24.082031 1172.195312 23.269531 1172.195312 22.414062 C 1172.195312 21.480469 1173.636719 21.484375 1173.636719 22.414062 C 1173.636719 22.976562 1173.589844 23.613281 1173.839844 24.136719 C 1174.003906 24.492188 1173.941406 24.914062 1173.578125 25.125 Z M 1244.328125 48 C 1237.199219 42.429688 1226.121094 42.738281 1219.085938 48.296875 C 1218.363281 48.867188 1217.335938 47.851562 1218.066406 47.277344 C 1219.78125 45.921875 1221.660156 44.847656 1223.703125 44.058594 C 1230.785156 41.332031 1239.320312 42.265625 1245.347656 46.976562 C 1246.082031 47.550781 1245.054688 48.5625 1244.328125 48 Z M 1360.574219 30.910156 C 1358.964844 29.035156 1356.957031 27.507812 1354.640625 26.613281 C 1352.261719 25.695312 1349.734375 25.644531 1347.261719 26.238281 C 1346.046875 26.53125 1344.871094 26.976562 1343.769531 27.574219 C 1342.640625 28.1875 1341.683594 29.011719 1340.652344 29.769531 C 1338.796875 31.128906 1336.527344 31.683594 1334.457031 30.402344 C 1333.667969 29.910156 1334.390625 28.664062 1335.183594 29.15625 C 1337.71875 30.722656 1339.804688 28.511719 1341.765625 27.117188 C 1343.78125 25.679688 1346.234375 24.832031 1348.679688 24.523438 C 1351.203125 24.207031 1353.578125 24.550781 1355.902344 25.585938 C 1358.09375 26.566406 1360.03125 28.070312 1361.59375 29.886719 C 1362.199219 30.589844 1361.183594 31.613281 1360.574219 30.910156 Z M 1420.722656 19.105469 C 1418.261719 17.9375 1415.488281 18.503906 1413.078125 19.492188 C 1405.683594 22.519531 1400.558594 29.886719 1400.355469 37.886719 C 1400.332031 38.816406 1398.886719 38.816406 1398.910156 37.886719 C 1398.972656 35.390625 1399.464844 32.910156 1400.382812 30.585938 C 1401.972656 26.546875 1404.691406 23.015625 1408.226562 20.496094 C 1411.890625 17.882812 1417.09375 15.785156 1421.453125 17.855469 C 1422.289062 18.257812 1421.558594 19.5 1420.722656 19.105469 Z M 1420.722656 19.105469 " fill-opacity="1" fill-rule="nonzero"/><g fill="#ffffff" fill-opacity="1"><g transform="translate(546.878311, 55.124994)"><g><path d="M 23.1875 0.90625 C 20.15625 0.90625 17.332031 0.367188 14.71875 -0.703125 C 12.113281 -1.773438 9.847656 -3.257812 7.921875 -5.15625 C 5.992188 -7.0625 4.492188 -9.316406 3.421875 -11.921875 C 2.359375 -14.535156 1.828125 -17.359375 1.828125 -20.390625 C 1.828125 -23.429688 2.359375 -26.234375 3.421875 -28.796875 C 4.492188 -31.367188 5.992188 -33.601562 7.921875 -35.5 C 9.847656 -37.40625 12.101562 -38.894531 14.6875 -39.96875 C 17.28125 -41.039062 20.09375 -41.578125 23.125 -41.578125 C 26.40625 -41.578125 29.421875 -40.945312 32.171875 -39.6875 C 34.921875 -38.4375 37.328125 -36.640625 39.390625 -34.296875 L 32.109375 -27.4375 C 31.054688 -28.65625 29.8125 -29.597656 28.375 -30.265625 C 26.9375 -30.929688 25.347656 -31.265625 23.609375 -31.265625 C 22.035156 -31.265625 20.578125 -30.988281 19.234375 -30.4375 C 17.898438 -29.894531 16.757812 -29.144531 15.8125 -28.1875 C 14.863281 -27.238281 14.113281 -26.097656 13.5625 -24.765625 C 13.019531 -23.429688 12.75 -21.972656 12.75 -20.390625 C 12.75 -18.773438 13.019531 -17.300781 13.5625 -15.96875 C 14.113281 -14.632812 14.875 -13.476562 15.84375 -12.5 C 16.8125 -11.53125 17.960938 -10.769531 19.296875 -10.21875 C 20.640625 -9.675781 22.097656 -9.40625 23.671875 -9.40625 C 25.492188 -9.40625 27.113281 -9.75 28.53125 -10.4375 C 29.945312 -11.125 31.160156 -12.054688 32.171875 -13.234375 L 39.453125 -6.4375 C 37.515625 -4.125 35.160156 -2.320312 32.390625 -1.03125 C 29.617188 0.257812 26.550781 0.90625 23.1875 0.90625 Z M 23.1875 0.90625 "/></g></g></g><g fill="#ffffff" fill-opacity="1"><g transform="translate(587.238095, 55.124994)"><g><path d="M 4.25 -40.671875 L 14.5625 -40.671875 L 14.5625 -25.5 L 28.53125 -25.5 L 28.53125 -40.671875 L 38.84375 -40.671875 L 38.84375 0 L 28.53125 0 L 28.53125 -15.78125 L 14.5625 -15.78125 L 14.5625 0 L 4.25 0 Z M 4.25 -40.671875 "/></g></g></g><g fill="#ffffff" fill-opacity="1"><g transform="translate(630.328999, 55.124994)"><g><path d="M 23.0625 0.90625 C 20.03125 0.90625 17.21875 0.367188 14.625 -0.703125 C 12.039062 -1.773438 9.796875 -3.257812 7.890625 -5.15625 C 5.984375 -7.0625 4.492188 -9.304688 3.421875 -11.890625 C 2.359375 -14.484375 1.828125 -17.296875 1.828125 -20.328125 C 1.828125 -23.367188 2.359375 -26.179688 3.421875 -28.765625 C 4.492188 -31.359375 5.984375 -33.601562 7.890625 -35.5 C 9.796875 -37.40625 12.039062 -38.894531 14.625 -39.96875 C 17.21875 -41.039062 20.03125 -41.578125 23.0625 -41.578125 C 26.101562 -41.578125 28.925781 -41.039062 31.53125 -39.96875 C 34.144531 -38.894531 36.390625 -37.40625 38.265625 -35.5 C 40.148438 -33.601562 41.628906 -31.359375 42.703125 -28.765625 C 43.773438 -26.179688 44.3125 -23.367188 44.3125 -20.328125 C 44.3125 -17.296875 43.773438 -14.484375 42.703125 -11.890625 C 41.628906 -9.304688 40.148438 -7.0625 38.265625 -5.15625 C 36.390625 -3.257812 34.144531 -1.773438 31.53125 -0.703125 C 28.925781 0.367188 26.101562 0.90625 23.0625 0.90625 Z M 23.0625 -9.40625 C 24.5625 -9.40625 25.9375 -9.675781 27.1875 -10.21875 C 28.445312 -10.769531 29.53125 -11.53125 30.4375 -12.5 C 31.351562 -13.476562 32.070312 -14.632812 32.59375 -15.96875 C 33.125 -17.300781 33.390625 -18.753906 33.390625 -20.328125 C 33.390625 -21.910156 33.125 -23.367188 32.59375 -24.703125 C 32.070312 -26.035156 31.351562 -27.1875 30.4375 -28.15625 C 29.53125 -29.132812 28.445312 -29.894531 27.1875 -30.4375 C 25.9375 -30.988281 24.5625 -31.265625 23.0625 -31.265625 C 21.570312 -31.265625 20.195312 -30.988281 18.9375 -30.4375 C 17.6875 -29.894531 16.601562 -29.132812 15.6875 -28.15625 C 14.78125 -27.1875 14.0625 -26.035156 13.53125 -24.703125 C 13.007812 -23.367188 12.75 -21.910156 12.75 -20.328125 C 12.75 -18.753906 13.007812 -17.300781 13.53125 -15.96875 C 14.0625 -14.632812 14.78125 -13.476562 15.6875 -12.5 C 16.601562 -11.53125 17.6875 -10.769531 18.9375 -10.21875 C 20.195312 -9.675781 21.570312 -9.40625 23.0625 -9.40625 Z M 23.0625 -9.40625 "/></g></g></g><g fill="#ffffff" fill-opacity="1"><g transform="translate(676.454476, 55.124994)"><g><path d="M 4.25 -40.671875 L 17.96875 -40.671875 C 20.113281 -40.671875 22.097656 -40.335938 23.921875 -39.671875 C 25.742188 -39.003906 27.3125 -38.0625 28.625 -36.84375 C 29.9375 -35.632812 30.957031 -34.195312 31.6875 -32.53125 C 32.414062 -30.875 32.78125 -29.054688 32.78125 -27.078125 C 32.78125 -24.679688 32.273438 -22.539062 31.265625 -20.65625 C 30.253906 -18.78125 28.835938 -17.238281 27.015625 -16.03125 L 35.8125 0 L 23.984375 0 L 17.234375 -13.46875 L 14.5625 -13.46875 L 14.5625 0 L 4.25 0 Z M 17.359375 -22.28125 C 18.898438 -22.28125 20.132812 -22.710938 21.0625 -23.578125 C 21.988281 -24.453125 22.453125 -25.597656 22.453125 -27.015625 C 22.453125 -28.515625 21.988281 -29.695312 21.0625 -30.5625 C 20.132812 -31.4375 18.898438 -31.875 17.359375 -31.875 L 14.5625 -31.875 L 14.5625 -22.28125 Z M 17.359375 -22.28125 "/></g></g></g><g fill="#ffffff" fill-opacity="1"><g transform="translate(712.869322, 55.124994)"><g><path d="M 4.25 -40.671875 L 17.96875 -40.671875 C 20.113281 -40.671875 22.097656 -40.335938 23.921875 -39.671875 C 25.742188 -39.003906 27.3125 -38.0625 28.625 -36.84375 C 29.9375 -35.632812 30.957031 -34.195312 31.6875 -32.53125 C 32.414062 -30.875 32.78125 -29.054688 32.78125 -27.078125 C 32.78125 -24.679688 32.273438 -22.539062 31.265625 -20.65625 C 30.253906 -18.78125 28.835938 -17.238281 27.015625 -16.03125 L 35.8125 0 L 23.984375 0 L 17.234375 -13.46875 L 14.5625 -13.46875 L 14.5625 0 L 4.25 0 Z M 17.359375 -22.28125 C 18.898438 -22.28125 20.132812 -22.710938 21.0625 -23.578125 C 21.988281 -24.453125 22.453125 -25.597656 22.453125 -27.015625 C 22.453125 -28.515625 21.988281 -29.695312 21.0625 -30.5625 C 20.132812 -31.4375 18.898438 -31.875 17.359375 -31.875 L 14.5625 -31.875 L 14.5625 -22.28125 Z M 17.359375 -22.28125 "/></g></g></g><g fill="#ffffff" fill-opacity="1"><g transform="translate(749.284178, 55.124994)"><g><path d="M 4.25 -40.671875 L 28.234375 -40.671875 L 28.234375 -31.078125 L 14.5625 -31.078125 L 14.5625 -25.1875 L 24.40625 -25.1875 L 24.40625 -16.09375 L 14.5625 -16.09375 L 14.5625 -9.59375 L 28.53125 -9.59375 L 28.53125 0 L 4.25 0 Z M 4.25 -40.671875 "/></g></g></g><g fill="#ffffff" fill-opacity="1"><g transform="translate(780.843708, 55.124994)"><g><path d="M 12.140625 -30.953125 L 0.90625 -30.953125 L 0.90625 -40.671875 L 33.6875 -40.671875 L 33.6875 -30.953125 L 22.453125 -30.953125 L 22.453125 0 L 12.140625 0 Z M 12.140625 -30.953125 "/></g></g></g><g fill="#ffffff" fill-opacity="1"><g transform="translate(815.437798, 55.124994)"><g><path d="M 4.25 -40.671875 L 28.234375 -40.671875 L 28.234375 -31.078125 L 14.5625 -31.078125 L 14.5625 -25.1875 L 24.40625 -25.1875 L 24.40625 -16.09375 L 14.5625 -16.09375 L 14.5625 -9.59375 L 28.53125 -9.59375 L 28.53125 0 L 4.25 0 Z M 4.25 -40.671875 "/></g></g></g><g fill="#ffffff" fill-opacity="1"><g transform="translate(846.997328, 55.124994)"><g><path d="M 23.0625 0.90625 C 20.03125 0.90625 17.21875 0.367188 14.625 -0.703125 C 12.039062 -1.773438 9.796875 -3.257812 7.890625 -5.15625 C 5.984375 -7.0625 4.492188 -9.304688 3.421875 -11.890625 C 2.359375 -14.484375 1.828125 -17.296875 1.828125 -20.328125 C 1.828125 -23.367188 2.359375 -26.179688 3.421875 -28.765625 C 4.492188 -31.359375 5.984375 -33.601562 7.890625 -35.5 C 9.796875 -37.40625 12.039062 -38.894531 14.625 -39.96875 C 17.21875 -41.039062 20.03125 -41.578125 23.0625 -41.578125 C 26.101562 -41.578125 28.925781 -41.039062 31.53125 -39.96875 C 34.144531 -38.894531 36.390625 -37.40625 38.265625 -35.5 C 40.148438 -33.601562 41.628906 -31.359375 42.703125 -28.765625 C 43.773438 -26.179688 44.3125 -23.367188 44.3125 -20.328125 C 44.3125 -17.296875 43.773438 -14.484375 42.703125 -11.890625 C 41.628906 -9.304688 40.148438 -7.0625 38.265625 -5.15625 C 36.390625 -3.257812 34.144531 -1.773438 31.53125 -0.703125 C 28.925781 0.367188 26.101562 0.90625 23.0625 0.90625 Z M 23.0625 -9.40625 C 24.5625 -9.40625 25.9375 -9.675781 27.1875 -10.21875 C 28.445312 -10.769531 29.53125 -11.53125 30.4375 -12.5 C 31.351562 -13.476562 32.070312 -14.632812 32.59375 -15.96875 C 33.125 -17.300781 33.390625 -18.753906 33.390625 -20.328125 C 33.390625 -21.910156 33.125 -23.367188 32.59375 -24.703125 C 32.070312 -26.035156 31.351562 -27.1875 30.4375 -28.15625 C 29.53125 -29.132812 28.445312 -29.894531 27.1875 -30.4375 C 25.9375 -30.988281 24.5625 -31.265625 23.0625 -31.265625 C 21.570312 -31.265625 20.195312 -30.988281 18.9375 -30.4375 C 17.6875 -29.894531 16.601562 -29.132812 15.6875 -28.15625 C 14.78125 -27.1875 14.0625 -26.035156 13.53125 -24.703125 C 13.007812 -23.367188 12.75 -21.910156 12.75 -20.328125 C 12.75 -18.753906 13.007812 -17.300781 13.53125 -15.96875 C 14.0625 -14.632812 14.78125 -13.476562 15.6875 -12.5 C 16.601562 -11.53125 17.6875 -10.769531 18.9375 -10.21875 C 20.195312 -9.675781 21.570312 -9.40625 23.0625 -9.40625 Z M 23.0625 -9.40625 "/></g></g></g><g clip-path="url(#c2e1d16d8f)"><path fill="#fbbe00" d="M 870.058594 12.933594 C 880.539062 12.933594 889.40625 19.886719 892.203125 29.390625 C 893.375 35.703125 891.4375 36.5 888.949219 36.386719 C 886.476562 36.253906 886.226562 38.285156 886.648438 43.53125 C 887.089844 48.777344 879.0625 46.933594 880.691406 42.125 C 882.300781 37.296875 883.679688 31.9375 878.5625 32.679688 C 873.46875 33.421875 879.253906 47.125 876.515625 49.519531 C 873.773438 51.933594 871.667969 49.023438 873.660156 40.394531 C 875.652344 31.75 870.917969 30.457031 868.238281 30.511719 C 865.574219 30.570312 867.242188 36.9375 864.769531 35.703125 C 862.28125 34.464844 865.632812 30.894531 862.085938 29.90625 C 858.542969 28.917969 859.980469 38.476562 855.25 37.183594 C 850.515625 35.890625 852.890625 33.421875 850.265625 31.007812 C 848.410156 29.296875 848.484375 27.851562 848.675781 27.167969 C 852.125 18.824219 860.382812 12.933594 870.058594 12.933594 Z M 870.058594 12.933594 " fill-opacity="1" fill-rule="evenodd"/></g><g fill="#ffffff" fill-opacity="1"><g transform="translate(432.09561, 45.197588)"><g><path d="M 6.453125 0.25 C 5.285156 0.25 4.207031 -0.0234375 3.21875 -0.578125 C 2.238281 -1.128906 1.421875 -1.929688 0.765625 -2.984375 L 2.15625 -4.109375 C 3.351562 -2.296875 4.789062 -1.390625 6.46875 -1.390625 C 7.476562 -1.390625 8.289062 -1.660156 8.90625 -2.203125 C 9.53125 -2.753906 9.84375 -3.484375 9.84375 -4.390625 C 9.84375 -5.179688 9.5625 -5.859375 9 -6.421875 C 8.445312 -6.984375 7.550781 -7.515625 6.3125 -8.015625 C 4.757812 -8.609375 3.632812 -9.304688 2.9375 -10.109375 C 2.25 -10.921875 1.90625 -11.882812 1.90625 -13 C 1.90625 -13.664062 2.015625 -14.269531 2.234375 -14.8125 C 2.453125 -15.363281 2.765625 -15.835938 3.171875 -16.234375 C 3.585938 -16.628906 4.082031 -16.929688 4.65625 -17.140625 C 5.226562 -17.359375 5.867188 -17.46875 6.578125 -17.46875 C 8.546875 -17.46875 10.171875 -16.59375 11.453125 -14.84375 L 10.0625 -13.71875 C 9.550781 -14.4375 9.007812 -14.960938 8.4375 -15.296875 C 7.863281 -15.628906 7.234375 -15.796875 6.546875 -15.796875 C 5.671875 -15.796875 4.976562 -15.554688 4.46875 -15.078125 C 3.957031 -14.597656 3.703125 -13.957031 3.703125 -13.15625 C 3.703125 -12.382812 3.960938 -11.726562 4.484375 -11.1875 C 5.003906 -10.644531 5.875 -10.132812 7.09375 -9.65625 C 8.644531 -9.0625 9.789062 -8.347656 10.53125 -7.515625 C 11.269531 -6.679688 11.640625 -5.691406 11.640625 -4.546875 C 11.640625 -3.847656 11.507812 -3.203125 11.25 -2.609375 C 10.988281 -2.015625 10.628906 -1.503906 10.171875 -1.078125 C 9.710938 -0.648438 9.164062 -0.320312 8.53125 -0.09375 C 7.894531 0.132812 7.203125 0.25 6.453125 0.25 Z M 6.453125 0.25 "/></g></g></g><g fill="#ffffff" fill-opacity="1"><g transform="translate(445.017159, 45.197588)"><g><path d="M 2.3125 -17.203125 L 4.109375 -17.203125 L 4.109375 0 L 2.3125 0 Z M 2.3125 -17.203125 "/></g></g></g><g fill="#ffffff" fill-opacity="1"><g transform="translate(451.4394, 45.197588)"><g><path d="M 2.3125 -17.203125 L 11.171875 -17.203125 L 11.171875 -15.546875 L 4.109375 -15.546875 L 4.109375 -9.765625 L 9.5 -9.765625 L 9.5 -8.09375 L 4.109375 -8.09375 L 4.109375 -1.671875 L 11.296875 -1.671875 L 11.296875 0 L 2.3125 0 Z M 2.3125 -17.203125 "/></g></g></g><g fill="#ffffff" fill-opacity="1"><g transform="translate(464.283882, 45.197588)"><g><path d="M 4.0625 -13.390625 L 4.0625 0 L 2.3125 0 L 2.3125 -17.71875 L 2.828125 -17.71875 L 14.4375 -3.828125 L 14.4375 -17.203125 L 16.1875 -17.203125 L 16.1875 0.515625 L 15.671875 0.515625 Z M 4.0625 -13.390625 "/></g></g></g><g fill="#ffffff" fill-opacity="1"><g transform="translate(482.77994, 45.197588)"><g><path d="M 6.421875 -15.546875 L 0.765625 -15.546875 L 0.765625 -17.203125 L 13.875 -17.203125 L 13.875 -15.546875 L 8.21875 -15.546875 L 8.21875 0 L 6.421875 0 Z M 6.421875 -15.546875 "/></g></g></g><g fill="#ffffff" fill-opacity="1"><g transform="translate(497.422652, 45.197588)"><g><path d="M 2.3125 -17.203125 L 11.171875 -17.203125 L 11.171875 -15.546875 L 4.109375 -15.546875 L 4.109375 -9.765625 L 9.5 -9.765625 L 9.5 -8.09375 L 4.109375 -8.09375 L 4.109375 -1.671875 L 11.296875 -1.671875 L 11.296875 0 L 2.3125 0 Z M 2.3125 -17.203125 "/></g></g></g><g fill="#ffffff" fill-opacity="1"><g transform="translate(510.267134, 45.197588)"><g/></g></g><g fill="#ffffff" fill-opacity="1"><g transform="translate(515.918703, 45.197588)"><g><path d="M 2.3125 -17.203125 L 11.171875 -17.203125 L 11.171875 -15.546875 L 4.109375 -15.546875 L 4.109375 -9.765625 L 9.5 -9.765625 L 9.5 -8.09375 L 4.109375 -8.09375 L 4.109375 -1.671875 L 11.296875 -1.671875 L 11.296875 0 L 2.3125 0 Z M 2.3125 -17.203125 "/></g></g></g><g fill="#ffffff" fill-opacity="1"><g transform="translate(528.763185, 45.197588)"><g><path d="M 2.3125 -17.203125 L 4.109375 -17.203125 L 4.109375 -1.671875 L 11.046875 -1.671875 L 11.046875 0 L 2.3125 0 Z M 2.3125 -17.203125 "/></g></g></g></svg>