<svg xmlns="http://www.w3.org/2000/svg" xmlns:xlink="http://www.w3.org/1999/xlink" width="1920" zoomAndPan="magnify" viewBox="0 0 1440 74.999997" height="100" preserveAspectRatio="xMidYMid meet" version="1.0"><rect x="-144" width="1728" fill="#ffffff" y="-7.5" height="89.999996" fill-opacity="1"/><rect x="-144" width="1728" fill="#ffffff" y="-7.5" height="89.999996" fill-opacity="1"/><rect x="-144" width="1728" fill="#4308b1" y="-7.5" height="89.999996" fill-opacity="1"/><path fill="#fbbe00" d="M 309.441406 0.0507812 L -6.613281 0.546875 C -9.769531 4.003906 -10.191406 9.65625 -7.578125 13.539062 C -4.964844 17.425781 0.429688 19.167969 4.820312 17.542969 C 8.777344 16.082031 11.644531 12.335938 15.71875 11.226562 C 22.800781 9.289062 29.410156 16.324219 31.257812 23.433594 C 33.101562 30.539062 32.15625 38.175781 34.242188 45.21875 C 38.363281 59.128906 55.609375 67.453125 69.0625 62.023438 C 78.148438 58.351562 85.648438 49.507812 95.433594 50.023438 C 100.421875 50.285156 104.878906 53.015625 109.433594 55.066406 C 113.988281 57.113281 119.460938 58.472656 123.835938 56.0625 C 131.535156 51.824219 129.941406 40.339844 133.859375 32.472656 C 137.796875 24.570312 148.542969 20.9375 156.46875 24.828125 C 160.101562 26.613281 163.78125 29.804688 167.640625 28.574219 C 169.695312 27.917969 171.183594 26.105469 173.15625 25.222656 C 178.339844 22.902344 183.78125 27.660156 187.421875 32.019531 C 191.0625 36.378906 196.273438 41.277344 201.582031 39.257812 C 205.6875 37.695312 207.660156 32.488281 211.886719 31.28125 C 216.078125 30.085938 220.308594 33.5625 222.152344 37.515625 C 224 41.46875 224.351562 45.96875 226.007812 50.003906 C 229 57.292969 236.488281 62.511719 244.367188 62.789062 C 252.242188 63.0625 260.078125 58.386719 263.574219 51.324219 C 266.03125 46.363281 266.394531 40.660156 267.914062 35.335938 C 269.433594 30.011719 272.765625 24.535156 278.15625 23.285156 C 283.667969 22.007812 289.117188 25.5625 294.765625 25.929688 C 304.699219 26.574219 313.050781 9.335938 309.441406 0.0507812 Z M 34.921875 17.527344 C 33.992188 12.578125 29.566406 8.515625 24.578125 7.910156 C 23.664062 7.796875 23.65625 6.351562 24.578125 6.464844 C 30.175781 7.144531 35.257812 11.511719 36.316406 17.144531 C 36.484375 18.054688 35.09375 18.441406 34.921875 17.527344 Z M 36.582031 25.125 C 36.265625 25.308594 35.757812 25.21875 35.589844 24.867188 C 35.222656 24.082031 35.195312 23.269531 35.195312 22.414062 C 35.195312 21.480469 36.640625 21.484375 36.640625 22.414062 C 36.640625 22.976562 36.589844 23.613281 36.839844 24.136719 C 37.003906 24.492188 36.941406 24.914062 36.582031 25.125 Z M 107.328125 48 C 100.203125 42.429688 89.125 42.738281 82.085938 48.296875 C 81.367188 48.867188 80.335938 47.851562 81.066406 47.277344 C 82.78125 45.921875 84.660156 44.847656 86.703125 44.058594 C 93.789062 41.332031 102.320312 42.265625 108.351562 46.976562 C 109.082031 47.550781 108.054688 48.5625 107.328125 48 Z M 223.574219 30.910156 C 221.964844 29.035156 219.957031 27.507812 217.640625 26.613281 C 215.261719 25.695312 212.734375 25.644531 210.265625 26.238281 C 209.046875 26.53125 207.875 26.976562 206.773438 27.574219 C 205.644531 28.1875 204.683594 29.011719 203.652344 29.769531 C 201.796875 31.128906 199.527344 31.683594 197.457031 30.402344 C 196.667969 29.910156 197.394531 28.664062 198.1875 29.15625 C 200.722656 30.722656 202.804688 28.511719 204.765625 27.117188 C 206.785156 25.679688 209.234375 24.832031 211.679688 24.523438 C 214.207031 24.207031 216.582031 24.550781 218.902344 25.585938 C 221.097656 26.566406 223.03125 28.070312 224.59375 29.886719 C 225.199219 30.589844 224.183594 31.613281 223.574219 30.910156 Z M 283.722656 19.105469 C 281.265625 17.9375 278.488281 18.503906 276.078125 19.492188 C 268.683594 22.519531 263.558594 29.886719 263.359375 37.886719 C 263.332031 38.816406 261.890625 38.816406 261.914062 37.886719 C 261.976562 35.390625 262.46875 32.910156 263.386719 30.585938 C 264.976562 26.546875 267.691406 23.015625 271.230469 20.496094 C 274.894531 17.882812 280.09375 15.785156 284.453125 17.855469 C 285.292969 18.257812 284.558594 19.5 283.722656 19.105469 Z M 283.722656 19.105469 " fill-opacity="1" fill-rule="nonzero"/><path fill="#fbbe00" d="M 1446.441406 0.0507812 L 1130.382812 0.546875 C 1127.226562 4.003906 1126.808594 9.65625 1129.421875 13.539062 C 1132.035156 17.425781 1137.425781 19.167969 1141.816406 17.542969 C 1145.777344 16.082031 1148.644531 12.335938 1152.714844 11.226562 C 1159.796875 9.289062 1166.410156 16.324219 1168.257812 23.433594 C 1170.101562 30.539062 1169.15625 38.175781 1171.242188 45.21875 C 1175.363281 59.128906 1192.605469 67.453125 1206.0625 62.023438 C 1215.148438 58.351562 1222.644531 49.507812 1232.433594 50.023438 C 1237.421875 50.285156 1241.878906 53.015625 1246.433594 55.066406 C 1250.988281 57.113281 1256.460938 58.472656 1260.835938 56.0625 C 1268.53125 51.824219 1266.941406 40.339844 1270.859375 32.472656 C 1274.796875 24.570312 1285.542969 20.9375 1293.46875 24.828125 C 1297.101562 26.613281 1300.78125 29.804688 1304.636719 28.574219 C 1306.695312 27.917969 1308.183594 26.105469 1310.15625 25.222656 C 1315.335938 22.902344 1320.78125 27.660156 1324.421875 32.019531 C 1328.0625 36.378906 1333.273438 41.277344 1338.582031 39.257812 C 1342.6875 37.695312 1344.660156 32.488281 1348.886719 31.28125 C 1353.078125 30.085938 1357.304688 33.5625 1359.152344 37.515625 C 1360.996094 41.46875 1361.351562 45.96875 1363.007812 50.003906 C 1366 57.292969 1373.488281 62.511719 1381.363281 62.789062 C 1389.242188 63.0625 1397.078125 58.386719 1400.574219 51.324219 C 1403.03125 46.363281 1403.390625 40.660156 1404.910156 35.335938 C 1406.429688 30.011719 1409.761719 24.535156 1415.152344 23.285156 C 1420.664062 22.007812 1426.117188 25.5625 1431.761719 25.929688 C 1441.699219 26.574219 1450.050781 9.335938 1446.441406 0.0507812 Z M 1171.921875 17.527344 C 1170.992188 12.578125 1166.566406 8.515625 1161.574219 7.910156 C 1160.664062 7.796875 1160.65625 6.351562 1161.574219 6.464844 C 1167.175781 7.144531 1172.257812 11.511719 1173.3125 17.144531 C 1173.484375 18.054688 1172.09375 18.441406 1171.921875 17.527344 Z M 1173.578125 25.125 C 1173.265625 25.308594 1172.757812 25.21875 1172.589844 24.867188 C 1172.21875 24.082031 1172.195312 23.269531 1172.195312 22.414062 C 1172.195312 21.480469 1173.636719 21.484375 1173.636719 22.414062 C 1173.636719 22.976562 1173.589844 23.613281 1173.839844 24.136719 C 1174.003906 24.492188 1173.941406 24.914062 1173.578125 25.125 Z M 1244.328125 48 C 1237.199219 42.429688 1226.121094 42.738281 1219.085938 48.296875 C 1218.363281 48.867188 1217.335938 47.851562 1218.066406 47.277344 C 1219.78125 45.921875 1221.660156 44.847656 1223.703125 44.058594 C 1230.785156 41.332031 1239.320312 42.265625 1245.347656 46.976562 C 1246.082031 47.550781 1245.054688 48.5625 1244.328125 48 Z M 1360.574219 30.910156 C 1358.964844 29.035156 1356.957031 27.507812 1354.640625 26.613281 C 1352.261719 25.695312 1349.734375 25.644531 1347.261719 26.238281 C 1346.046875 26.53125 1344.871094 26.976562 1343.769531 27.574219 C 1342.640625 28.1875 1341.683594 29.011719 1340.652344 29.769531 C 1338.796875 31.128906 1336.527344 31.683594 1334.457031 30.402344 C 1333.667969 29.910156 1334.390625 28.664062 1335.183594 29.15625 C 1337.71875 30.722656 1339.804688 28.511719 1341.765625 27.117188 C 1343.78125 25.679688 1346.234375 24.832031 1348.679688 24.523438 C 1351.203125 24.207031 1353.578125 24.550781 1355.902344 25.585938 C 1358.09375 26.566406 1360.03125 28.070312 1361.59375 29.886719 C 1362.199219 30.589844 1361.183594 31.613281 1360.574219 30.910156 Z M 1420.722656 19.105469 C 1418.261719 17.9375 1415.488281 18.503906 1413.078125 19.492188 C 1405.683594 22.519531 1400.558594 29.886719 1400.355469 37.886719 C 1400.332031 38.816406 1398.886719 38.816406 1398.910156 37.886719 C 1398.972656 35.390625 1399.464844 32.910156 1400.382812 30.585938 C 1401.972656 26.546875 1404.691406 23.015625 1408.226562 20.496094 C 1411.890625 17.882812 1417.09375 15.785156 1421.453125 17.855469 C 1422.289062 18.257812 1421.558594 19.5 1420.722656 19.105469 Z M 1420.722656 19.105469 " fill-opacity="1" fill-rule="nonzero"/></svg>