<svg xmlns="http://www.w3.org/2000/svg" xmlns:xlink="http://www.w3.org/1999/xlink" width="1920" zoomAndPan="magnify" viewBox="0 0 1440 74.999997" height="100" preserveAspectRatio="xMidYMid meet" version="1.0"><defs><clipPath id="bd65b4680a"><path d="M 731 12.9375 L 747 12.9375 L 747 37 L 731 37 Z M 731 12.9375 " clip-rule="nonzero"/></clipPath><clipPath id="73d6e2048a"><path d="M 736 35 L 747.457031 35 L 747.457031 42 L 736 42 Z M 736 35 " clip-rule="nonzero"/></clipPath><clipPath id="852bd89514"><path d="M 692.707031 12.9375 L 709 12.9375 L 709 37 L 692.707031 37 Z M 692.707031 12.9375 " clip-rule="nonzero"/></clipPath><clipPath id="005e01e6cd"><path d="M 715 59 L 724 59 L 724 62.4375 L 715 62.4375 Z M 715 59 " clip-rule="nonzero"/></clipPath></defs><rect x="-144" width="1728" fill="#ffffff" y="-7.5" height="89.999996" fill-opacity="1"/><rect x="-144" width="1728" fill="#ffffff" y="-7.5" height="89.999996" fill-opacity="1"/><rect x="-144" width="1728" fill="#4308b1" y="-7.5" height="89.999996" fill-opacity="1"/><g clip-path="url(#bd65b4680a)"><path fill="#ffffff" d="M 731.535156 34.683594 C 731.816406 36.003906 733.175781 36.789062 734.453125 36.363281 C 734.472656 36.359375 734.492188 36.351562 734.511719 36.34375 C 735.257812 36.097656 736.132812 35.796875 737.078125 35.429688 C 738.023438 35.0625 739.035156 34.636719 740.035156 34.121094 L 740.410156 33.925781 L 740.59375 33.824219 L 740.777344 33.71875 C 740.902344 33.648438 741.023438 33.578125 741.144531 33.507812 C 741.265625 33.4375 741.386719 33.359375 741.507812 33.289062 C 741.625 33.210938 741.746094 33.140625 741.863281 33.0625 C 741.980469 32.984375 742.097656 32.90625 742.210938 32.828125 C 742.269531 32.789062 742.328125 32.75 742.382812 32.710938 C 742.445312 32.667969 742.503906 32.625 742.5625 32.582031 C 742.683594 32.496094 742.792969 32.40625 742.910156 32.320312 C 743.804688 31.605469 744.523438 30.828125 745.058594 30.089844 C 745.328125 29.722656 745.550781 29.363281 745.734375 29.035156 C 745.914062 28.710938 746.054688 28.414062 746.160156 28.160156 C 746.1875 28.097656 746.210938 28.039062 746.234375 27.980469 C 746.257812 27.925781 746.277344 27.871094 746.296875 27.820312 C 746.332031 27.722656 746.363281 27.636719 746.386719 27.566406 C 746.433594 27.425781 746.457031 27.351562 746.457031 27.351562 C 746.457031 27.351562 746.464844 27.332031 746.472656 27.296875 C 746.484375 27.257812 746.5 27.203125 746.519531 27.132812 C 746.539062 27.0625 746.5625 26.972656 746.585938 26.867188 C 746.609375 26.761719 746.640625 26.644531 746.664062 26.503906 C 746.675781 26.4375 746.6875 26.363281 746.699219 26.289062 C 746.710938 26.210938 746.71875 26.132812 746.730469 26.046875 C 746.742188 25.964844 746.75 25.875 746.757812 25.785156 C 746.761719 25.695312 746.773438 25.601562 746.773438 25.503906 C 746.789062 25.113281 746.769531 24.667969 746.6875 24.195312 C 746.667969 24.078125 746.640625 23.957031 746.617188 23.835938 C 746.589844 23.71875 746.554688 23.59375 746.523438 23.472656 C 746.484375 23.351562 746.445312 23.226562 746.402344 23.105469 C 746.355469 22.988281 746.308594 22.867188 746.261719 22.746094 C 746.054688 22.269531 745.792969 21.796875 745.484375 21.355469 C 745.175781 20.910156 744.820312 20.5 744.445312 20.113281 C 744.070312 19.730469 743.679688 19.375 743.285156 19.039062 C 742.496094 18.363281 741.710938 17.753906 741.03125 17.128906 C 740.355469 16.503906 739.777344 15.867188 739.414062 15.242188 C 739.230469 14.929688 739.105469 14.621094 739.035156 14.335938 C 738.964844 14.050781 738.953125 13.792969 738.984375 13.578125 C 738.988281 13.554688 738.992188 13.527344 738.996094 13.5 C 739 13.476562 739.003906 13.453125 739.011719 13.429688 C 739.023438 13.382812 739.03125 13.339844 739.042969 13.296875 C 739.058594 13.257812 739.074219 13.222656 739.085938 13.1875 C 739.097656 13.15625 739.109375 13.121094 739.121094 13.097656 C 739.175781 12.992188 739.203125 12.9375 739.203125 12.9375 C 739.203125 12.9375 739.167969 12.988281 739.09375 13.082031 C 739.074219 13.105469 739.058594 13.132812 739.039062 13.164062 C 739.019531 13.195312 738.996094 13.230469 738.976562 13.269531 C 738.953125 13.308594 738.9375 13.351562 738.914062 13.398438 C 738.90625 13.421875 738.894531 13.445312 738.882812 13.46875 C 738.875 13.496094 738.867188 13.523438 738.855469 13.550781 C 738.78125 13.765625 738.738281 14.050781 738.753906 14.375 C 738.773438 14.699219 738.847656 15.0625 738.980469 15.441406 C 739.246094 16.195312 739.730469 16.992188 740.3125 17.777344 C 740.894531 18.5625 741.574219 19.335938 742.191406 20.109375 C 742.5 20.496094 742.789062 20.882812 743.042969 21.269531 C 743.296875 21.65625 743.515625 22.039062 743.679688 22.414062 C 743.84375 22.789062 743.960938 23.152344 744.035156 23.5 C 744.054688 23.585938 744.066406 23.671875 744.082031 23.753906 C 744.09375 23.835938 744.101562 23.914062 744.109375 23.992188 C 744.113281 24.070312 744.117188 24.144531 744.125 24.21875 C 744.121094 24.292969 744.121094 24.367188 744.121094 24.4375 C 744.113281 24.71875 744.070312 24.972656 744.015625 25.195312 C 744.003906 25.25 743.988281 25.304688 743.972656 25.355469 C 743.960938 25.40625 743.945312 25.453125 743.929688 25.503906 C 743.914062 25.546875 743.898438 25.59375 743.882812 25.636719 C 743.867188 25.679688 743.851562 25.71875 743.835938 25.757812 C 743.804688 25.835938 743.773438 25.902344 743.746094 25.960938 C 743.722656 26.019531 743.695312 26.070312 743.675781 26.109375 C 743.65625 26.148438 743.640625 26.179688 743.628906 26.199219 C 743.617188 26.222656 743.613281 26.230469 743.613281 26.230469 C 743.613281 26.230469 743.589844 26.273438 743.542969 26.351562 C 743.523438 26.390625 743.492188 26.441406 743.457031 26.496094 C 743.441406 26.523438 743.421875 26.554688 743.402344 26.585938 C 743.378906 26.617188 743.355469 26.652344 743.332031 26.6875 C 743.238281 26.828125 743.109375 26.996094 742.953125 27.179688 C 742.796875 27.367188 742.609375 27.570312 742.382812 27.773438 C 741.9375 28.1875 741.347656 28.613281 740.675781 28.957031 C 740.589844 29 740.507812 29.042969 740.421875 29.082031 C 740.378906 29.101562 740.335938 29.121094 740.292969 29.140625 C 740.246094 29.160156 740.195312 29.179688 740.148438 29.199219 C 740.050781 29.242188 739.953125 29.285156 739.855469 29.324219 C 739.761719 29.367188 739.65625 29.402344 739.558594 29.441406 C 739.453125 29.476562 739.355469 29.519531 739.253906 29.554688 C 739.148438 29.589844 739.042969 29.625 738.9375 29.660156 L 738.78125 29.714844 L 738.621094 29.761719 L 738.300781 29.859375 C 736.570312 30.363281 734.683594 30.640625 733.238281 30.835938 C 733.230469 30.835938 733.222656 30.835938 733.214844 30.835938 C 731.90625 31.007812 731.019531 32.269531 731.296875 33.566406 L 731.535156 34.683594 " fill-opacity="1" fill-rule="nonzero"/></g><g clip-path="url(#73d6e2048a)"><path fill="#ffffff" d="M 741.613281 36.710938 C 737.828125 34.195312 736.332031 37.148438 736.332031 37.148438 C 741.066406 46.570312 747.445312 38.957031 747.445312 38.957031 C 747.445312 38.957031 745.398438 39.226562 741.613281 36.710938 " fill-opacity="1" fill-rule="nonzero"/></g><g clip-path="url(#852bd89514)"><path fill="#ffffff" d="M 707.972656 34.683594 C 707.691406 36.003906 706.332031 36.789062 705.054688 36.363281 C 705.035156 36.359375 705.015625 36.351562 704.996094 36.34375 C 704.25 36.097656 703.371094 35.796875 702.425781 35.429688 C 701.484375 35.0625 700.472656 34.636719 699.472656 34.121094 L 699.097656 33.925781 L 698.914062 33.824219 L 698.730469 33.71875 C 698.605469 33.648438 698.484375 33.578125 698.363281 33.507812 C 698.238281 33.4375 698.121094 33.359375 698 33.289062 C 697.878906 33.210938 697.761719 33.140625 697.644531 33.0625 C 697.527344 32.984375 697.410156 32.90625 697.296875 32.828125 C 697.238281 32.789062 697.179688 32.75 697.125 32.710938 C 697.0625 32.667969 697.003906 32.625 696.945312 32.582031 C 696.824219 32.496094 696.714844 32.40625 696.597656 32.320312 C 695.703125 31.605469 694.984375 30.828125 694.449219 30.089844 C 694.179688 29.722656 693.957031 29.363281 693.773438 29.035156 C 693.59375 28.710938 693.449219 28.414062 693.347656 28.160156 C 693.320312 28.097656 693.296875 28.039062 693.273438 27.980469 C 693.25 27.925781 693.230469 27.871094 693.210938 27.820312 C 693.175781 27.722656 693.144531 27.636719 693.121094 27.566406 C 693.074219 27.425781 693.050781 27.351562 693.050781 27.351562 C 693.050781 27.351562 693.042969 27.332031 693.035156 27.296875 C 693.023438 27.257812 693.007812 27.203125 692.988281 27.132812 C 692.96875 27.0625 692.945312 26.972656 692.921875 26.867188 C 692.898438 26.761719 692.867188 26.644531 692.84375 26.503906 C 692.832031 26.4375 692.820312 26.363281 692.808594 26.289062 C 692.796875 26.210938 692.789062 26.132812 692.777344 26.046875 C 692.765625 25.964844 692.757812 25.875 692.75 25.785156 C 692.746094 25.695312 692.734375 25.601562 692.734375 25.503906 C 692.71875 25.113281 692.738281 24.667969 692.820312 24.195312 C 692.839844 24.078125 692.867188 23.957031 692.890625 23.835938 C 692.917969 23.71875 692.953125 23.59375 692.984375 23.472656 C 693.023438 23.351562 693.0625 23.226562 693.105469 23.105469 C 693.152344 22.988281 693.195312 22.867188 693.246094 22.746094 C 693.453125 22.269531 693.714844 21.796875 694.023438 21.355469 C 694.332031 20.910156 694.6875 20.5 695.0625 20.113281 C 695.433594 19.730469 695.828125 19.375 696.222656 19.039062 C 697.011719 18.363281 697.796875 17.753906 698.476562 17.128906 C 699.152344 16.503906 699.730469 15.867188 700.09375 15.242188 C 700.277344 14.929688 700.402344 14.621094 700.472656 14.335938 C 700.542969 14.050781 700.554688 13.792969 700.523438 13.578125 C 700.519531 13.554688 700.515625 13.527344 700.511719 13.5 C 700.507812 13.476562 700.5 13.453125 700.496094 13.429688 C 700.484375 13.382812 700.476562 13.339844 700.460938 13.296875 C 700.449219 13.257812 700.433594 13.222656 700.421875 13.1875 C 700.410156 13.15625 700.398438 13.121094 700.386719 13.097656 C 700.332031 12.992188 700.300781 12.9375 700.300781 12.9375 C 700.300781 12.9375 700.339844 12.988281 700.414062 13.082031 C 700.433594 13.105469 700.449219 13.132812 700.46875 13.164062 C 700.488281 13.195312 700.507812 13.230469 700.53125 13.269531 C 700.554688 13.308594 700.570312 13.351562 700.59375 13.398438 C 700.601562 13.421875 700.613281 13.445312 700.625 13.46875 C 700.632812 13.496094 700.640625 13.523438 700.652344 13.550781 C 700.726562 13.765625 700.769531 14.050781 700.753906 14.375 C 700.734375 14.699219 700.660156 15.0625 700.527344 15.441406 C 700.261719 16.195312 699.777344 16.992188 699.195312 17.777344 C 698.613281 18.5625 697.933594 19.335938 697.316406 20.109375 C 697.007812 20.496094 696.71875 20.882812 696.464844 21.269531 C 696.210938 21.65625 695.992188 22.039062 695.828125 22.414062 C 695.664062 22.789062 695.546875 23.152344 695.472656 23.5 C 695.453125 23.585938 695.441406 23.671875 695.425781 23.753906 C 695.414062 23.835938 695.40625 23.914062 695.398438 23.992188 C 695.394531 24.070312 695.390625 24.144531 695.382812 24.21875 C 695.386719 24.292969 695.386719 24.367188 695.386719 24.4375 C 695.394531 24.71875 695.4375 24.972656 695.492188 25.195312 C 695.503906 25.25 695.519531 25.304688 695.535156 25.355469 C 695.546875 25.40625 695.5625 25.453125 695.578125 25.503906 C 695.59375 25.546875 695.609375 25.59375 695.625 25.636719 C 695.640625 25.679688 695.65625 25.71875 695.671875 25.757812 C 695.703125 25.835938 695.734375 25.902344 695.761719 25.960938 C 695.785156 26.019531 695.8125 26.070312 695.832031 26.109375 C 695.851562 26.148438 695.867188 26.179688 695.878906 26.199219 C 695.890625 26.222656 695.894531 26.230469 695.894531 26.230469 C 695.894531 26.230469 695.917969 26.273438 695.964844 26.351562 C 695.984375 26.390625 696.015625 26.441406 696.050781 26.496094 C 696.066406 26.523438 696.085938 26.554688 696.105469 26.585938 C 696.128906 26.617188 696.152344 26.652344 696.175781 26.6875 C 696.269531 26.828125 696.398438 26.996094 696.554688 27.179688 C 696.710938 27.367188 696.898438 27.570312 697.125 27.773438 C 697.570312 28.1875 698.160156 28.613281 698.832031 28.957031 C 698.917969 29 699 29.042969 699.085938 29.082031 C 699.128906 29.101562 699.171875 29.121094 699.214844 29.140625 C 699.261719 29.160156 699.3125 29.179688 699.359375 29.199219 C 699.457031 29.242188 699.554688 29.285156 699.652344 29.324219 C 699.746094 29.367188 699.851562 29.402344 699.949219 29.441406 C 700.050781 29.476562 700.152344 29.519531 700.253906 29.554688 C 700.359375 29.589844 700.464844 29.625 700.570312 29.660156 L 700.726562 29.714844 L 700.886719 29.761719 L 701.207031 29.859375 C 702.9375 30.363281 704.824219 30.640625 706.269531 30.835938 C 706.277344 30.835938 706.285156 30.835938 706.292969 30.835938 C 707.601562 31.007812 708.488281 32.269531 708.210938 33.566406 L 707.972656 34.683594 " fill-opacity="1" fill-rule="nonzero"/></g><path fill="#ffffff" d="M 699.308594 36.710938 C 703.089844 34.195312 704.585938 37.148438 704.585938 37.148438 C 699.855469 46.570312 693.472656 38.957031 693.472656 38.957031 C 693.472656 38.957031 695.523438 39.226562 699.308594 36.710938 " fill-opacity="1" fill-rule="nonzero"/><path fill="#ffffff" d="M 734.152344 38.78125 C 734.152344 38.78125 734.167969 38.882812 734.179688 39.074219 C 734.191406 39.261719 734.199219 39.546875 734.183594 39.902344 C 734.171875 40.261719 734.136719 40.699219 734.058594 41.195312 C 733.980469 41.691406 733.863281 42.246094 733.695312 42.84375 C 733.523438 43.441406 733.296875 44.082031 733 44.738281 C 732.707031 45.394531 732.347656 46.066406 731.917969 46.726562 C 731.484375 47.386719 730.984375 48.039062 730.417969 48.652344 C 730.28125 48.808594 730.128906 48.953125 729.984375 49.105469 L 729.789062 49.304688 L 729.738281 49.359375 L 729.710938 49.382812 L 729.695312 49.40625 L 729.621094 49.488281 C 729.570312 49.539062 729.515625 49.609375 729.464844 49.671875 C 729.410156 49.730469 729.363281 49.800781 729.3125 49.863281 C 729.257812 49.925781 729.214844 49.996094 729.164062 50.0625 L 729.027344 50.265625 C 728.675781 50.816406 728.410156 51.429688 728.222656 52.089844 C 728.03125 52.746094 727.914062 53.445312 727.824219 54.148438 C 727.734375 54.851562 727.671875 55.558594 727.589844 56.25 C 727.546875 56.59375 727.503906 56.933594 727.445312 57.269531 C 727.386719 57.601562 727.324219 57.925781 727.238281 58.238281 C 727.148438 58.554688 727.050781 58.855469 726.925781 59.132812 C 726.800781 59.410156 726.660156 59.667969 726.496094 59.890625 C 726.171875 60.34375 725.785156 60.644531 725.449219 60.816406 C 725.367188 60.863281 725.285156 60.894531 725.210938 60.933594 C 725.132812 60.960938 725.058594 60.988281 724.992188 61.011719 C 724.925781 61.03125 724.863281 61.050781 724.804688 61.070312 C 724.746094 61.082031 724.695312 61.09375 724.648438 61.105469 C 724.554688 61.125 724.476562 61.132812 724.429688 61.140625 C 724.382812 61.148438 724.355469 61.152344 724.355469 61.152344 C 724.355469 61.152344 724.378906 61.136719 724.417969 61.109375 C 724.457031 61.078125 724.519531 61.039062 724.59375 60.980469 C 724.742188 60.871094 724.957031 60.699219 725.167969 60.449219 C 725.382812 60.203125 725.582031 59.875 725.714844 59.472656 C 725.847656 59.066406 725.910156 58.585938 725.921875 58.035156 C 725.929688 57.757812 725.925781 57.46875 725.910156 57.160156 C 725.898438 56.851562 725.882812 56.53125 725.863281 56.195312 C 725.824219 55.519531 725.78125 54.789062 725.789062 54.007812 C 725.800781 53.226562 725.863281 52.390625 726.0625 51.53125 C 726.253906 50.675781 726.597656 49.804688 727.097656 49.019531 C 727.164062 48.921875 727.230469 48.824219 727.292969 48.730469 C 727.363281 48.636719 727.429688 48.542969 727.503906 48.449219 C 727.578125 48.363281 727.648438 48.269531 727.722656 48.183594 C 727.800781 48.097656 727.875 48.011719 727.960938 47.921875 L 728.089844 47.789062 L 728.199219 47.679688 L 728.425781 47.46875 C 728.558594 47.339844 728.695312 47.21875 728.824219 47.089844 C 729.34375 46.585938 729.832031 46.054688 730.277344 45.519531 C 730.722656 44.980469 731.128906 44.433594 731.496094 43.898438 C 731.863281 43.363281 732.1875 42.832031 732.472656 42.332031 C 732.757812 41.832031 733.003906 41.359375 733.214844 40.929688 C 733.425781 40.503906 733.597656 40.121094 733.738281 39.800781 C 734.015625 39.164062 734.152344 38.78125 734.152344 38.78125 " fill-opacity="1" fill-rule="nonzero"/><path fill="#ffffff" d="M 705.355469 38.78125 C 705.355469 38.78125 705.492188 39.164062 705.769531 39.800781 C 705.90625 40.121094 706.082031 40.503906 706.292969 40.929688 C 706.5 41.359375 706.75 41.832031 707.035156 42.332031 C 707.320312 42.832031 707.644531 43.363281 708.011719 43.898438 C 708.378906 44.433594 708.785156 44.980469 709.230469 45.519531 C 709.675781 46.054688 710.164062 46.585938 710.683594 47.089844 C 710.8125 47.21875 710.949219 47.339844 711.082031 47.46875 L 711.304688 47.679688 L 711.359375 47.730469 L 711.417969 47.789062 L 711.546875 47.921875 C 711.632812 48.011719 711.707031 48.097656 711.785156 48.183594 C 711.859375 48.269531 711.929688 48.363281 712.003906 48.449219 C 712.078125 48.542969 712.144531 48.636719 712.210938 48.730469 C 712.277344 48.824219 712.34375 48.921875 712.410156 49.019531 C 712.910156 49.804688 713.253906 50.675781 713.445312 51.53125 C 713.644531 52.390625 713.707031 53.226562 713.71875 54.007812 C 713.726562 54.789062 713.683594 55.519531 713.644531 56.195312 C 713.625 56.53125 713.609375 56.851562 713.59375 57.160156 C 713.582031 57.46875 713.578125 57.757812 713.585938 58.035156 C 713.597656 58.585938 713.660156 59.066406 713.792969 59.472656 C 713.925781 59.875 714.125 60.203125 714.339844 60.449219 C 714.550781 60.699219 714.765625 60.871094 714.914062 60.980469 C 714.988281 61.039062 715.050781 61.078125 715.089844 61.109375 C 715.128906 61.136719 715.152344 61.152344 715.152344 61.152344 C 715.152344 61.152344 715.125 61.148438 715.078125 61.140625 C 715.027344 61.132812 714.953125 61.125 714.859375 61.105469 C 714.8125 61.09375 714.761719 61.082031 714.703125 61.070312 C 714.644531 61.050781 714.582031 61.03125 714.515625 61.011719 C 714.449219 60.988281 714.375 60.960938 714.296875 60.933594 C 714.222656 60.894531 714.140625 60.863281 714.058594 60.816406 C 713.722656 60.644531 713.335938 60.34375 713.011719 59.890625 C 712.847656 59.667969 712.707031 59.410156 712.582031 59.132812 C 712.457031 58.855469 712.359375 58.554688 712.269531 58.238281 C 712.183594 57.925781 712.121094 57.601562 712.0625 57.269531 C 712.003906 56.933594 711.960938 56.59375 711.917969 56.25 C 711.835938 55.558594 711.773438 54.851562 711.683594 54.148438 C 711.59375 53.445312 711.476562 52.746094 711.285156 52.089844 C 711.097656 51.429688 710.832031 50.816406 710.480469 50.265625 L 710.34375 50.0625 C 710.292969 49.996094 710.246094 49.925781 710.195312 49.863281 C 710.144531 49.800781 710.097656 49.730469 710.042969 49.671875 C 709.992188 49.609375 709.9375 49.539062 709.886719 49.488281 L 709.8125 49.40625 L 709.796875 49.382812 L 709.769531 49.359375 L 709.71875 49.304688 L 709.523438 49.105469 C 709.378906 48.953125 709.226562 48.808594 709.089844 48.652344 C 708.523438 48.039062 708.023438 47.386719 707.589844 46.726562 C 707.160156 46.066406 706.796875 45.394531 706.507812 44.738281 C 706.210938 44.082031 705.984375 43.441406 705.8125 42.84375 C 705.644531 42.246094 705.527344 41.691406 705.449219 41.195312 C 705.371094 40.699219 705.335938 40.261719 705.320312 39.902344 C 705.308594 39.546875 705.316406 39.261719 705.328125 39.074219 C 705.339844 38.882812 705.355469 38.78125 705.355469 38.78125 " fill-opacity="1" fill-rule="nonzero"/><g clip-path="url(#005e01e6cd)"><path fill="#ffffff" d="M 723.222656 59.125 C 722.398438 59.726562 721.152344 60.199219 719.753906 60.199219 C 718.355469 60.199219 717.109375 59.726562 716.285156 59.125 C 715.871094 59.402344 715.628906 59.730469 715.628906 60.085938 C 715.628906 61.070312 717.476562 62.4375 719.753906 62.4375 C 722.03125 62.4375 723.878906 61.070312 723.878906 60.085938 C 723.878906 59.730469 723.636719 59.402344 723.222656 59.125 " fill-opacity="1" fill-rule="nonzero"/></g></svg>